solid OpenSCAD_Model
  facet normal -1 0 0
    outer loop
      vertex 0 0 0
      vertex 0 5 10
      vertex 0 5 0
    endloop
  endfacet
  facet normal -1 -0 0
    outer loop
      vertex 0 5 10
      vertex 0 0 0
      vertex 0 0 10
    endloop
  endfacet
  facet normal -1 0 0
    outer loop
      vertex 0 24.5 0
      vertex 0 30 10
      vertex 0 30 0
    endloop
  endfacet
  facet normal -1 -0 0
    outer loop
      vertex 0 30 10
      vertex 0 24.5 0
      vertex 0 24.5 10
    endloop
  endfacet
  facet normal 0 0 1
    outer loop
      vertex 9 5 10
      vertex 0 5 10
      vertex 9 2.5 10
    endloop
  endfacet
  facet normal 0 0 1
    outer loop
      vertex 147.97 15.9419 10
      vertex 147.97 14.0581 10
      vertex 148 15 10
    endloop
  endfacet
  facet normal 0 0 1
    outer loop
      vertex 147.882 16.88 10
      vertex 147.97 14.0581 10
      vertex 147.97 15.9419 10
    endloop
  endfacet
  facet normal 0 0 1
    outer loop
      vertex 147.882 16.88 10
      vertex 147.882 13.12 10
      vertex 147.97 14.0581 10
    endloop
  endfacet
  facet normal 0 0 1
    outer loop
      vertex 147.734 17.8107 10
      vertex 147.882 13.12 10
      vertex 147.882 16.88 10
    endloop
  endfacet
  facet normal 0 0 1
    outer loop
      vertex 147.734 17.8107 10
      vertex 147.734 12.1893 10
      vertex 147.882 13.12 10
    endloop
  endfacet
  facet normal 0 0 1
    outer loop
      vertex 147.529 18.7303 10
      vertex 147.734 12.1893 10
      vertex 147.734 17.8107 10
    endloop
  endfacet
  facet normal 0 0 1
    outer loop
      vertex 147.529 18.7303 10
      vertex 147.529 11.2697 10
      vertex 147.734 12.1893 10
    endloop
  endfacet
  facet normal 0 0 1
    outer loop
      vertex 147.266 19.6353 10
      vertex 147.529 11.2697 10
      vertex 147.529 18.7303 10
    endloop
  endfacet
  facet normal 0 0 1
    outer loop
      vertex 147.266 19.6353 10
      vertex 147.266 10.3647 10
      vertex 147.529 11.2697 10
    endloop
  endfacet
  facet normal 0 0 1
    outer loop
      vertex 146.947 20.5219 10
      vertex 147.266 10.3647 10
      vertex 147.266 19.6353 10
    endloop
  endfacet
  facet normal 0 0 1
    outer loop
      vertex 146.947 20.5219 10
      vertex 146.947 9.47813 10
      vertex 147.266 10.3647 10
    endloop
  endfacet
  facet normal 0 0 1
    outer loop
      vertex 146.572 21.3867 10
      vertex 146.947 9.47813 10
      vertex 146.947 20.5219 10
    endloop
  endfacet
  facet normal 0 0 1
    outer loop
      vertex 146.572 21.3867 10
      vertex 146.572 8.61331 10
      vertex 146.947 9.47813 10
    endloop
  endfacet
  facet normal 0 0 1
    outer loop
      vertex 146.145 22.2263 10
      vertex 146.572 8.61331 10
      vertex 146.572 21.3867 10
    endloop
  endfacet
  facet normal 0 0 1
    outer loop
      vertex 146.145 22.2263 10
      vertex 146.145 7.77369 10
      vertex 146.572 8.61331 10
    endloop
  endfacet
  facet normal 0 0 1
    outer loop
      vertex 145.665 23.0374 10
      vertex 146.145 7.77369 10
      vertex 146.145 22.2263 10
    endloop
  endfacet
  facet normal 0 0 1
    outer loop
      vertex 145.665 23.0374 10
      vertex 145.665 6.9626 10
      vertex 146.145 7.77369 10
    endloop
  endfacet
  facet normal 0 0 1
    outer loop
      vertex 145.135 23.8168 10
      vertex 145.665 6.9626 10
      vertex 145.665 23.0374 10
    endloop
  endfacet
  facet normal 0 0 1
    outer loop
      vertex 145.135 23.8168 10
      vertex 145.135 6.18322 10
      vertex 145.665 6.9626 10
    endloop
  endfacet
  facet normal 0 0 1
    outer loop
      vertex 144.558 24.5614 10
      vertex 145.135 6.18322 10
      vertex 145.135 23.8168 10
    endloop
  endfacet
  facet normal 0 0 1
    outer loop
      vertex 144.558 24.5614 10
      vertex 144.558 5.43864 10
      vertex 145.135 6.18322 10
    endloop
  endfacet
  facet normal 0 0 1
    outer loop
      vertex 143.935 25.2682 10
      vertex 144.558 5.43864 10
      vertex 144.558 24.5614 10
    endloop
  endfacet
  facet normal 0 0 1
    outer loop
      vertex 143.935 25.2682 10
      vertex 143.935 4.73179 10
      vertex 144.558 5.43864 10
    endloop
  endfacet
  facet normal 0 0 1
    outer loop
      vertex 143.268 25.9345 10
      vertex 143.935 4.73179 10
      vertex 143.935 25.2682 10
    endloop
  endfacet
  facet normal 0 0 1
    outer loop
      vertex 143.268 25.9345 10
      vertex 143.268 4.06547 10
      vertex 143.935 4.73179 10
    endloop
  endfacet
  facet normal 0 0 1
    outer loop
      vertex 142.561 26.5577 10
      vertex 143.268 4.06547 10
      vertex 143.268 25.9345 10
    endloop
  endfacet
  facet normal 0 0 1
    outer loop
      vertex 142.561 26.5577 10
      vertex 142.561 3.4423 10
      vertex 143.268 4.06547 10
    endloop
  endfacet
  facet normal 0 0 1
    outer loop
      vertex 141.817 27.1353 10
      vertex 142.561 3.4423 10
      vertex 142.561 26.5577 10
    endloop
  endfacet
  facet normal 0 0 1
    outer loop
      vertex 141.817 27.1353 10
      vertex 141.817 2.86474 10
      vertex 142.561 3.4423 10
    endloop
  endfacet
  facet normal 0 0 1
    outer loop
      vertex 141.037 27.6649 10
      vertex 141.817 2.86474 10
      vertex 141.817 27.1353 10
    endloop
  endfacet
  facet normal 0 0 1
    outer loop
      vertex 141.037 27.6649 10
      vertex 141.037 2.33508 10
      vertex 141.817 2.86474 10
    endloop
  endfacet
  facet normal 0 0 1
    outer loop
      vertex 140.226 28.1446 10
      vertex 141.037 2.33508 10
      vertex 141.037 27.6649 10
    endloop
  endfacet
  facet normal 0 0 1
    outer loop
      vertex 140.226 28.1446 10
      vertex 140.226 1.8554 10
      vertex 141.037 2.33508 10
    endloop
  endfacet
  facet normal 0 0 1
    outer loop
      vertex 139.387 28.5724 10
      vertex 140.226 1.8554 10
      vertex 140.226 28.1446 10
    endloop
  endfacet
  facet normal 0 0 1
    outer loop
      vertex 139.387 28.5724 10
      vertex 139.387 1.42759 10
      vertex 140.226 1.8554 10
    endloop
  endfacet
  facet normal 0 0 1
    outer loop
      vertex 138.522 28.9466 10
      vertex 139.387 1.42759 10
      vertex 139.387 28.5724 10
    endloop
  endfacet
  facet normal 0 0 1
    outer loop
      vertex 138.522 28.9466 10
      vertex 138.522 1.05335 10
      vertex 139.387 1.42759 10
    endloop
  endfacet
  facet normal 0 0 1
    outer loop
      vertex 137.635 29.2658 10
      vertex 138.522 1.05335 10
      vertex 138.522 28.9466 10
    endloop
  endfacet
  facet normal 0 0 1
    outer loop
      vertex 137.635 29.2658 10
      vertex 137.635 0.734152 10
      vertex 138.522 1.05335 10
    endloop
  endfacet
  facet normal 0 0 1
    outer loop
      vertex 136.73 29.5287 10
      vertex 137.635 0.734152 10
      vertex 137.635 29.2658 10
    endloop
  endfacet
  facet normal 0 0 1
    outer loop
      vertex 136.73 29.5287 10
      vertex 136.73 0.471252 10
      vertex 137.635 0.734152 10
    endloop
  endfacet
  facet normal 0 0 1
    outer loop
      vertex 135.811 29.7343 10
      vertex 136.73 0.471252 10
      vertex 136.73 29.5287 10
    endloop
  endfacet
  facet normal 0 0 1
    outer loop
      vertex 135.811 29.7343 10
      vertex 135.811 0.265691 10
      vertex 136.73 0.471252 10
    endloop
  endfacet
  facet normal 0 0 1
    outer loop
      vertex 134.88 29.8817 10
      vertex 135.811 0.265691 10
      vertex 135.811 29.7343 10
    endloop
  endfacet
  facet normal 0 0 1
    outer loop
      vertex 134.88 29.8817 10
      vertex 134.88 0.118279 10
      vertex 135.811 0.265691 10
    endloop
  endfacet
  facet normal 0 0 1
    outer loop
      vertex 133.942 29.9704 10
      vertex 134.88 0.118279 10
      vertex 134.88 29.8817 10
    endloop
  endfacet
  facet normal 0 0 1
    outer loop
      vertex 133.942 29.9704 10
      vertex 133.942 0.0295982 10
      vertex 134.88 0.118279 10
    endloop
  endfacet
  facet normal 0 0 1
    outer loop
      vertex 133 30 10
      vertex 133.942 0.0295982 10
      vertex 133.942 29.9704 10
    endloop
  endfacet
  facet normal 0 0 1
    outer loop
      vertex 133 30 10
      vertex 133 0 10
      vertex 133.942 0.0295982 10
    endloop
  endfacet
  facet normal 0 0 1
    outer loop
      vertex 133 30 10
      vertex 45 27.5 10
      vertex 133 0 10
    endloop
  endfacet
  facet normal -0 0 1
    outer loop
      vertex 0 30 10
      vertex 45 27.5 10
      vertex 133 30 10
    endloop
  endfacet
  facet normal 0 0 1
    outer loop
      vertex 45 27.5 10
      vertex 0 30 10
      vertex 9 27.5 10
    endloop
  endfacet
  facet normal 0 0 1
    outer loop
      vertex 0 24.5 10
      vertex 9 27.5 10
      vertex 0 30 10
    endloop
  endfacet
  facet normal 0 0 1
    outer loop
      vertex 9 27.5 10
      vertex 0 24.5 10
      vertex 9 24.5 10
    endloop
  endfacet
  facet normal -0 0 1
    outer loop
      vertex 45 2.5 10
      vertex 133 0 10
      vertex 45 27.5 10
    endloop
  endfacet
  facet normal 0 0 1
    outer loop
      vertex 0 0 10
      vertex 45 2.5 10
      vertex 9 2.5 10
    endloop
  endfacet
  facet normal 0 0 1
    outer loop
      vertex 45 2.5 10
      vertex 0 0 10
      vertex 133 0 10
    endloop
  endfacet
  facet normal 0 0 1
    outer loop
      vertex 0 0 10
      vertex 9 2.5 10
      vertex 0 5 10
    endloop
  endfacet
  facet normal 0 0 -1
    outer loop
      vertex 0 24.5 0
      vertex 9 30 0
      vertex 9 24.5 0
    endloop
  endfacet
  facet normal -0 0 -1
    outer loop
      vertex 9 30 0
      vertex 0 24.5 0
      vertex 0 30 0
    endloop
  endfacet
  facet normal 0 0 -1
    outer loop
      vertex 0 0 0
      vertex 9 5 0
      vertex 9 0 0
    endloop
  endfacet
  facet normal -0 0 -1
    outer loop
      vertex 9 5 0
      vertex 0 0 0
      vertex 0 5 0
    endloop
  endfacet
  facet normal 0 0 -1
    outer loop
      vertex 45 0 0
      vertex 53 30 0
      vertex 53 0 0
    endloop
  endfacet
  facet normal -0 0 -1
    outer loop
      vertex 53 30 0
      vertex 45 0 0
      vertex 45 30 0
    endloop
  endfacet
  facet normal 0 -1 0
    outer loop
      vertex 45 0 5
      vertex 45 0 0
      vertex 48 0 5
    endloop
  endfacet
  facet normal 0 -1 0
    outer loop
      vertex 48 0 5
      vertex 53 0 7.5
      vertex 48 0 7.5
    endloop
  endfacet
  facet normal 0 -1 0
    outer loop
      vertex 53 0 0
      vertex 48 0 5
      vertex 45 0 0
    endloop
  endfacet
  facet normal 0 -1 0
    outer loop
      vertex 48 0 5
      vertex 53 0 0
      vertex 53 0 7.5
    endloop
  endfacet
  facet normal 0 -1 0
    outer loop
      vertex 48 0 7.5
      vertex 0 0 10
      vertex 6 0 7.5
    endloop
  endfacet
  facet normal 0 -1 0
    outer loop
      vertex 0 0 10
      vertex 6 0 5
      vertex 6 0 7.5
    endloop
  endfacet
  facet normal 0 -1 0
    outer loop
      vertex 0 0 0
      vertex 6 0 5
      vertex 0 0 10
    endloop
  endfacet
  facet normal 0 -1 0
    outer loop
      vertex 9 0 0
      vertex 6 0 5
      vertex 0 0 0
    endloop
  endfacet
  facet normal 0 -1 0
    outer loop
      vertex 6 0 5
      vertex 9 0 0
      vertex 9 0 5
    endloop
  endfacet
  facet normal 0 -1 0
    outer loop
      vertex 53 0 7.5
      vertex 0 0 10
      vertex 48 0 7.5
    endloop
  endfacet
  facet normal 0 -1 0
    outer loop
      vertex 0 0 10
      vertex 53 0 7.5
      vertex 133 0 10
    endloop
  endfacet
  facet normal 0 -1 -0
    outer loop
      vertex 133 0 10
      vertex 53 0 7.5
      vertex 133 0 7.5
    endloop
  endfacet
  facet normal 0 1 0
    outer loop
      vertex 9 30 5
      vertex 9 30 0
      vertex 6 30 5
    endloop
  endfacet
  facet normal 0 1 0
    outer loop
      vertex 53 30 7.5
      vertex 48 30 5
      vertex 48 30 7.5
    endloop
  endfacet
  facet normal 0 1 -0
    outer loop
      vertex 53 30 0
      vertex 48 30 5
      vertex 53 30 7.5
    endloop
  endfacet
  facet normal 0 1 0
    outer loop
      vertex 45 30 0
      vertex 48 30 5
      vertex 53 30 0
    endloop
  endfacet
  facet normal 0 1 0
    outer loop
      vertex 48 30 5
      vertex 45 30 0
      vertex 45 30 5
    endloop
  endfacet
  facet normal 0 1 0
    outer loop
      vertex 53 30 7.5
      vertex 133 30 10
      vertex 133 30 7.5
    endloop
  endfacet
  facet normal 0 1 0
    outer loop
      vertex 133 30 10
      vertex 53 30 7.5
      vertex 0 30 10
    endloop
  endfacet
  facet normal 0 1 -0
    outer loop
      vertex 48 30 7.5
      vertex 0 30 10
      vertex 53 30 7.5
    endloop
  endfacet
  facet normal 0 1 -0
    outer loop
      vertex 6 30 7.5
      vertex 0 30 10
      vertex 48 30 7.5
    endloop
  endfacet
  facet normal 0 1 -0
    outer loop
      vertex 6 30 5
      vertex 0 30 10
      vertex 6 30 7.5
    endloop
  endfacet
  facet normal 0 1 0
    outer loop
      vertex 0 30 0
      vertex 6 30 5
      vertex 9 30 0
    endloop
  endfacet
  facet normal 0 1 0
    outer loop
      vertex 6 30 5
      vertex 0 30 0
      vertex 0 30 10
    endloop
  endfacet
  facet normal 0.999506 0.0314139 0
    outer loop
      vertex 148 15 10
      vertex 147.97 15.9419 7.5
      vertex 147.97 15.9419 10
    endloop
  endfacet
  facet normal 0.999506 0.0314139 0
    outer loop
      vertex 147.97 15.9419 7.5
      vertex 148 15 10
      vertex 148 15 7.5
    endloop
  endfacet
  facet normal 0.0314097 -0.999507 0
    outer loop
      vertex 133 0 7.5
      vertex 133.942 0.0295982 10
      vertex 133 0 10
    endloop
  endfacet
  facet normal 0.0314097 -0.999507 0
    outer loop
      vertex 133.942 0.0295982 10
      vertex 133 0 7.5
      vertex 133.942 0.0295982 7.5
    endloop
  endfacet
  facet normal 0.661311 0.750112 -0
    outer loop
      vertex 143.268 25.9345 7.5
      vertex 142.561 26.5577 10
      vertex 143.268 25.9345 10
    endloop
  endfacet
  facet normal 0.661311 0.750112 0
    outer loop
      vertex 142.561 26.5577 10
      vertex 143.268 25.9345 7.5
      vertex 142.561 26.5577 7.5
    endloop
  endfacet
  facet normal 0.891005 0.453994 0
    outer loop
      vertex 146.572 21.3867 10
      vertex 146.145 22.2263 7.5
      vertex 146.145 22.2263 10
    endloop
  endfacet
  facet normal 0.891005 0.453994 0
    outer loop
      vertex 146.145 22.2263 7.5
      vertex 146.572 21.3867 10
      vertex 146.572 21.3867 7.5
    endloop
  endfacet
  facet normal 0.707108 0.707106 0
    outer loop
      vertex 143.935 25.2682 10
      vertex 143.268 25.9345 7.5
      vertex 143.268 25.9345 10
    endloop
  endfacet
  facet normal 0.707108 0.707106 0
    outer loop
      vertex 143.268 25.9345 7.5
      vertex 143.935 25.2682 10
      vertex 143.935 25.2682 7.5
    endloop
  endfacet
  facet normal 0.338737 0.940881 -0
    outer loop
      vertex 138.522 28.9466 7.5
      vertex 137.635 29.2658 10
      vertex 138.522 28.9466 10
    endloop
  endfacet
  facet normal 0.338737 0.940881 0
    outer loop
      vertex 137.635 29.2658 10
      vertex 138.522 28.9466 7.5
      vertex 137.635 29.2658 7.5
    endloop
  endfacet
  facet normal 0.891004 -0.453995 0
    outer loop
      vertex 146.145 7.77369 10
      vertex 146.572 8.61331 7.5
      vertex 146.572 8.61331 10
    endloop
  endfacet
  facet normal 0.891004 -0.453995 0
    outer loop
      vertex 146.572 8.61331 7.5
      vertex 146.145 7.77369 10
      vertex 146.145 7.77369 7.5
    endloop
  endfacet
  facet normal 0.338738 -0.940881 0
    outer loop
      vertex 137.635 0.734152 7.5
      vertex 138.522 1.05335 10
      vertex 137.635 0.734152 10
    endloop
  endfacet
  facet normal 0.338738 -0.940881 0
    outer loop
      vertex 138.522 1.05335 10
      vertex 137.635 0.734152 7.5
      vertex 138.522 1.05335 7.5
    endloop
  endfacet
  facet normal 0.707108 -0.707105 0
    outer loop
      vertex 143.268 4.06547 10
      vertex 143.935 4.73179 7.5
      vertex 143.935 4.73179 10
    endloop
  endfacet
  facet normal 0.707108 -0.707105 0
    outer loop
      vertex 143.935 4.73179 7.5
      vertex 143.268 4.06547 10
      vertex 143.268 4.06547 7.5
    endloop
  endfacet
  facet normal 0.995562 -0.0941122 0
    outer loop
      vertex 147.882 13.12 10
      vertex 147.97 14.0581 7.5
      vertex 147.97 14.0581 10
    endloop
  endfacet
  facet normal 0.995562 -0.0941122 0
    outer loop
      vertex 147.97 14.0581 7.5
      vertex 147.882 13.12 10
      vertex 147.882 13.12 7.5
    endloop
  endfacet
  facet normal 0.940876 0.33875 0
    outer loop
      vertex 147.266 19.6353 10
      vertex 146.947 20.5219 7.5
      vertex 146.947 20.5219 10
    endloop
  endfacet
  facet normal 0.940876 0.33875 0
    outer loop
      vertex 146.947 20.5219 7.5
      vertex 147.266 19.6353 10
      vertex 147.266 19.6353 7.5
    endloop
  endfacet
  facet normal 0.790153 0.61291 0
    outer loop
      vertex 145.135 23.8168 10
      vertex 144.558 24.5614 7.5
      vertex 144.558 24.5614 10
    endloop
  endfacet
  facet normal 0.790153 0.61291 0
    outer loop
      vertex 144.558 24.5614 7.5
      vertex 145.135 23.8168 10
      vertex 145.135 23.8168 7.5
    endloop
  endfacet
  facet normal 0.156436 0.987688 -0
    outer loop
      vertex 135.811 29.7343 7.5
      vertex 134.88 29.8817 10
      vertex 135.811 29.7343 10
    endloop
  endfacet
  facet normal 0.156436 0.987688 0
    outer loop
      vertex 134.88 29.8817 10
      vertex 135.811 29.7343 7.5
      vertex 134.88 29.8817 7.5
    endloop
  endfacet
  facet normal 0.0941102 0.995562 -0
    outer loop
      vertex 134.88 29.8817 7.5
      vertex 133.942 29.9704 10
      vertex 134.88 29.8817 10
    endloop
  endfacet
  facet normal 0.0941102 0.995562 0
    outer loop
      vertex 133.942 29.9704 10
      vertex 134.88 29.8817 7.5
      vertex 133.942 29.9704 7.5
    endloop
  endfacet
  facet normal 0.397149 0.917754 -0
    outer loop
      vertex 139.387 28.5724 7.5
      vertex 138.522 28.9466 10
      vertex 139.387 28.5724 10
    endloop
  endfacet
  facet normal 0.397149 0.917754 0
    outer loop
      vertex 138.522 28.9466 10
      vertex 139.387 28.5724 7.5
      vertex 138.522 28.9466 7.5
    endloop
  endfacet
  facet normal 0.612906 0.790156 -0
    outer loop
      vertex 142.561 26.5577 7.5
      vertex 141.817 27.1353 10
      vertex 142.561 26.5577 10
    endloop
  endfacet
  facet normal 0.612906 0.790156 0
    outer loop
      vertex 141.817 27.1353 10
      vertex 142.561 26.5577 7.5
      vertex 141.817 27.1353 7.5
    endloop
  endfacet
  facet normal 0.661311 -0.750112 0
    outer loop
      vertex 142.561 3.4423 7.5
      vertex 143.268 4.06547 10
      vertex 142.561 3.4423 10
    endloop
  endfacet
  facet normal 0.661311 -0.750112 0
    outer loop
      vertex 143.268 4.06547 10
      vertex 142.561 3.4423 7.5
      vertex 143.268 4.06547 7.5
    endloop
  endfacet
  facet normal 0.790153 -0.61291 0
    outer loop
      vertex 144.558 5.43864 10
      vertex 145.135 6.18322 7.5
      vertex 145.135 6.18322 10
    endloop
  endfacet
  facet normal 0.790153 -0.61291 0
    outer loop
      vertex 145.135 6.18322 7.5
      vertex 144.558 5.43864 10
      vertex 144.558 5.43864 7.5
    endloop
  endfacet
  facet normal 0.98769 -0.156422 0
    outer loop
      vertex 147.734 12.1893 10
      vertex 147.882 13.12 7.5
      vertex 147.882 13.12 10
    endloop
  endfacet
  facet normal 0.98769 -0.156422 0
    outer loop
      vertex 147.882 13.12 7.5
      vertex 147.734 12.1893 10
      vertex 147.734 12.1893 7.5
    endloop
  endfacet
  facet normal 0.98769 0.156422 0
    outer loop
      vertex 147.882 16.88 10
      vertex 147.734 17.8107 7.5
      vertex 147.734 17.8107 10
    endloop
  endfacet
  facet normal 0.98769 0.156422 0
    outer loop
      vertex 147.734 17.8107 7.5
      vertex 147.882 16.88 10
      vertex 147.882 16.88 7.5
    endloop
  endfacet
  facet normal 0.995562 0.0941123 0
    outer loop
      vertex 147.97 15.9419 10
      vertex 147.882 16.88 7.5
      vertex 147.882 16.88 10
    endloop
  endfacet
  facet normal 0.995562 0.0941123 0
    outer loop
      vertex 147.882 16.88 7.5
      vertex 147.97 15.9419 10
      vertex 147.97 15.9419 7.5
    endloop
  endfacet
  facet normal 0.960295 0.278985 0
    outer loop
      vertex 147.529 18.7303 10
      vertex 147.266 19.6353 7.5
      vertex 147.266 19.6353 10
    endloop
  endfacet
  facet normal 0.960295 0.278985 0
    outer loop
      vertex 147.266 19.6353 7.5
      vertex 147.529 18.7303 10
      vertex 147.529 18.7303 7.5
    endloop
  endfacet
  facet normal 0.975916 0.218148 0
    outer loop
      vertex 147.734 17.8107 10
      vertex 147.529 18.7303 7.5
      vertex 147.529 18.7303 10
    endloop
  endfacet
  facet normal 0.975916 0.218148 0
    outer loop
      vertex 147.529 18.7303 7.5
      vertex 147.734 17.8107 10
      vertex 147.734 17.8107 7.5
    endloop
  endfacet
  facet normal 0.917756 0.397144 0
    outer loop
      vertex 146.947 20.5219 10
      vertex 146.572 21.3867 7.5
      vertex 146.572 21.3867 10
    endloop
  endfacet
  facet normal 0.917756 0.397144 0
    outer loop
      vertex 146.572 21.3867 7.5
      vertex 146.947 20.5219 10
      vertex 146.947 20.5219 7.5
    endloop
  endfacet
  facet normal 0.750111 0.661312 0
    outer loop
      vertex 144.558 24.5614 10
      vertex 143.935 25.2682 7.5
      vertex 143.935 25.2682 10
    endloop
  endfacet
  facet normal 0.750111 0.661312 0
    outer loop
      vertex 143.935 25.2682 7.5
      vertex 144.558 24.5614 10
      vertex 144.558 24.5614 7.5
    endloop
  endfacet
  facet normal 0.827081 0.562083 0
    outer loop
      vertex 145.665 23.0374 10
      vertex 145.135 23.8168 7.5
      vertex 145.135 23.8168 10
    endloop
  endfacet
  facet normal 0.827081 0.562083 0
    outer loop
      vertex 145.135 23.8168 7.5
      vertex 145.665 23.0374 10
      vertex 145.665 23.0374 7.5
    endloop
  endfacet
  facet normal 0.860745 0.509037 0
    outer loop
      vertex 146.145 22.2263 10
      vertex 145.665 23.0374 7.5
      vertex 145.665 23.0374 10
    endloop
  endfacet
  facet normal 0.860745 0.509037 0
    outer loop
      vertex 145.665 23.0374 7.5
      vertex 146.145 22.2263 10
      vertex 146.145 22.2263 7.5
    endloop
  endfacet
  facet normal 0.278993 0.960293 -0
    outer loop
      vertex 137.635 29.2658 7.5
      vertex 136.73 29.5287 10
      vertex 137.635 29.2658 10
    endloop
  endfacet
  facet normal 0.278993 0.960293 0
    outer loop
      vertex 136.73 29.5287 10
      vertex 137.635 29.2658 7.5
      vertex 136.73 29.5287 7.5
    endloop
  endfacet
  facet normal 0.218142 0.975917 -0
    outer loop
      vertex 136.73 29.5287 7.5
      vertex 135.811 29.7343 10
      vertex 136.73 29.5287 10
    endloop
  endfacet
  facet normal 0.218142 0.975917 0
    outer loop
      vertex 135.811 29.7343 10
      vertex 136.73 29.5287 7.5
      vertex 135.811 29.7343 7.5
    endloop
  endfacet
  facet normal 0.0314097 0.999507 -0
    outer loop
      vertex 133.942 29.9704 7.5
      vertex 133 30 10
      vertex 133.942 29.9704 10
    endloop
  endfacet
  facet normal 0.0314097 0.999507 0
    outer loop
      vertex 133 30 10
      vertex 133.942 29.9704 7.5
      vertex 133 30 7.5
    endloop
  endfacet
  facet normal 0.45399 0.891007 -0
    outer loop
      vertex 140.226 28.1446 7.5
      vertex 139.387 28.5724 10
      vertex 140.226 28.1446 10
    endloop
  endfacet
  facet normal 0.45399 0.891007 0
    outer loop
      vertex 139.387 28.5724 10
      vertex 140.226 28.1446 7.5
      vertex 139.387 28.5724 7.5
    endloop
  endfacet
  facet normal 0.509043 0.860741 -0
    outer loop
      vertex 141.037 27.6649 7.5
      vertex 140.226 28.1446 10
      vertex 141.037 27.6649 10
    endloop
  endfacet
  facet normal 0.509043 0.860741 0
    outer loop
      vertex 140.226 28.1446 10
      vertex 141.037 27.6649 7.5
      vertex 140.226 28.1446 7.5
    endloop
  endfacet
  facet normal 0.562085 0.82708 -0
    outer loop
      vertex 141.817 27.1353 7.5
      vertex 141.037 27.6649 10
      vertex 141.817 27.1353 10
    endloop
  endfacet
  facet normal 0.562085 0.82708 0
    outer loop
      vertex 141.037 27.6649 10
      vertex 141.817 27.1353 7.5
      vertex 141.037 27.6649 7.5
    endloop
  endfacet
  facet normal 0.999506 -0.0314139 0
    outer loop
      vertex 147.97 14.0581 10
      vertex 148 15 7.5
      vertex 148 15 10
    endloop
  endfacet
  facet normal 0.999506 -0.0314139 0
    outer loop
      vertex 148 15 7.5
      vertex 147.97 14.0581 10
      vertex 147.97 14.0581 7.5
    endloop
  endfacet
  facet normal 0.0941092 -0.995562 0
    outer loop
      vertex 133.942 0.0295982 7.5
      vertex 134.88 0.118279 10
      vertex 133.942 0.0295982 10
    endloop
  endfacet
  facet normal 0.0941092 -0.995562 0
    outer loop
      vertex 134.88 0.118279 10
      vertex 133.942 0.0295982 7.5
      vertex 134.88 0.118279 7.5
    endloop
  endfacet
  facet normal 0.218143 -0.975917 0
    outer loop
      vertex 135.811 0.265691 7.5
      vertex 136.73 0.471252 10
      vertex 135.811 0.265691 10
    endloop
  endfacet
  facet normal 0.218143 -0.975917 0
    outer loop
      vertex 136.73 0.471252 10
      vertex 135.811 0.265691 7.5
      vertex 136.73 0.471252 7.5
    endloop
  endfacet
  facet normal 0.397148 -0.917755 0
    outer loop
      vertex 138.522 1.05335 7.5
      vertex 139.387 1.42759 10
      vertex 138.522 1.05335 10
    endloop
  endfacet
  facet normal 0.397148 -0.917755 0
    outer loop
      vertex 139.387 1.42759 10
      vertex 138.522 1.05335 7.5
      vertex 139.387 1.42759 7.5
    endloop
  endfacet
  facet normal 0.612906 -0.790156 0
    outer loop
      vertex 141.817 2.86474 7.5
      vertex 142.561 3.4423 10
      vertex 141.817 2.86474 10
    endloop
  endfacet
  facet normal 0.612906 -0.790156 0
    outer loop
      vertex 142.561 3.4423 10
      vertex 141.817 2.86474 7.5
      vertex 142.561 3.4423 7.5
    endloop
  endfacet
  facet normal 0.509042 -0.860742 0
    outer loop
      vertex 140.226 1.8554 7.5
      vertex 141.037 2.33508 10
      vertex 140.226 1.8554 10
    endloop
  endfacet
  facet normal 0.509042 -0.860742 0
    outer loop
      vertex 141.037 2.33508 10
      vertex 140.226 1.8554 7.5
      vertex 141.037 2.33508 7.5
    endloop
  endfacet
  facet normal 0.827081 -0.562083 0
    outer loop
      vertex 145.135 6.18322 10
      vertex 145.665 6.9626 7.5
      vertex 145.665 6.9626 10
    endloop
  endfacet
  facet normal 0.827081 -0.562083 0
    outer loop
      vertex 145.665 6.9626 7.5
      vertex 145.135 6.18322 10
      vertex 145.135 6.18322 7.5
    endloop
  endfacet
  facet normal 0.940876 -0.338751 0
    outer loop
      vertex 146.947 9.47813 10
      vertex 147.266 10.3647 7.5
      vertex 147.266 10.3647 10
    endloop
  endfacet
  facet normal 0.940876 -0.338751 0
    outer loop
      vertex 147.266 10.3647 7.5
      vertex 146.947 9.47813 10
      vertex 146.947 9.47813 7.5
    endloop
  endfacet
  facet normal 0.960295 -0.278985 0
    outer loop
      vertex 147.266 10.3647 10
      vertex 147.529 11.2697 7.5
      vertex 147.529 11.2697 10
    endloop
  endfacet
  facet normal 0.960295 -0.278985 0
    outer loop
      vertex 147.529 11.2697 7.5
      vertex 147.266 10.3647 10
      vertex 147.266 10.3647 7.5
    endloop
  endfacet
  facet normal 0.156436 -0.987688 0
    outer loop
      vertex 134.88 0.118279 7.5
      vertex 135.811 0.265691 10
      vertex 134.88 0.118279 10
    endloop
  endfacet
  facet normal 0.156436 -0.987688 0
    outer loop
      vertex 135.811 0.265691 10
      vertex 134.88 0.118279 7.5
      vertex 135.811 0.265691 7.5
    endloop
  endfacet
  facet normal 0.278991 -0.960294 0
    outer loop
      vertex 136.73 0.471252 7.5
      vertex 137.635 0.734152 10
      vertex 136.73 0.471252 10
    endloop
  endfacet
  facet normal 0.278991 -0.960294 0
    outer loop
      vertex 137.635 0.734152 10
      vertex 136.73 0.471252 7.5
      vertex 137.635 0.734152 7.5
    endloop
  endfacet
  facet normal 0.45399 -0.891007 0
    outer loop
      vertex 139.387 1.42759 7.5
      vertex 140.226 1.8554 10
      vertex 139.387 1.42759 10
    endloop
  endfacet
  facet normal 0.45399 -0.891007 0
    outer loop
      vertex 140.226 1.8554 10
      vertex 139.387 1.42759 7.5
      vertex 140.226 1.8554 7.5
    endloop
  endfacet
  facet normal 0.750111 -0.661312 0
    outer loop
      vertex 143.935 4.73179 10
      vertex 144.558 5.43864 7.5
      vertex 144.558 5.43864 10
    endloop
  endfacet
  facet normal 0.750111 -0.661312 0
    outer loop
      vertex 144.558 5.43864 7.5
      vertex 143.935 4.73179 10
      vertex 143.935 4.73179 7.5
    endloop
  endfacet
  facet normal 0.562085 -0.82708 0
    outer loop
      vertex 141.037 2.33508 7.5
      vertex 141.817 2.86474 10
      vertex 141.037 2.33508 10
    endloop
  endfacet
  facet normal 0.562085 -0.82708 0
    outer loop
      vertex 141.817 2.86474 10
      vertex 141.037 2.33508 7.5
      vertex 141.817 2.86474 7.5
    endloop
  endfacet
  facet normal 0.860745 -0.509037 0
    outer loop
      vertex 145.665 6.9626 10
      vertex 146.145 7.77369 7.5
      vertex 146.145 7.77369 10
    endloop
  endfacet
  facet normal 0.860745 -0.509037 0
    outer loop
      vertex 146.145 7.77369 7.5
      vertex 145.665 6.9626 10
      vertex 145.665 6.9626 7.5
    endloop
  endfacet
  facet normal 0.917756 -0.397144 0
    outer loop
      vertex 146.572 8.61331 10
      vertex 146.947 9.47813 7.5
      vertex 146.947 9.47813 10
    endloop
  endfacet
  facet normal 0.917756 -0.397144 0
    outer loop
      vertex 146.947 9.47813 7.5
      vertex 146.572 8.61331 10
      vertex 146.572 8.61331 7.5
    endloop
  endfacet
  facet normal 0.975916 -0.218148 0
    outer loop
      vertex 147.529 11.2697 10
      vertex 147.734 12.1893 7.5
      vertex 147.734 12.1893 10
    endloop
  endfacet
  facet normal 0.975916 -0.218148 0
    outer loop
      vertex 147.734 12.1893 7.5
      vertex 147.529 11.2697 10
      vertex 147.529 11.2697 7.5
    endloop
  endfacet
  facet normal 1 -0 0
    outer loop
      vertex 9 2.5 10
      vertex 9 5 7.5
      vertex 9 5 10
    endloop
  endfacet
  facet normal 1 0 0
    outer loop
      vertex 9 5 7.5
      vertex 9 2.5 10
      vertex 9 2.5 7.5
    endloop
  endfacet
  facet normal 1 -0 0
    outer loop
      vertex 9 24.5 10
      vertex 9 27.5 7.5
      vertex 9 27.5 10
    endloop
  endfacet
  facet normal 1 0 0
    outer loop
      vertex 9 27.5 7.5
      vertex 9 24.5 10
      vertex 9 24.5 7.5
    endloop
  endfacet
  facet normal 1 -0 0
    outer loop
      vertex 9 0 5
      vertex 9 5 0
      vertex 9 5 5
    endloop
  endfacet
  facet normal 1 0 0
    outer loop
      vertex 9 5 0
      vertex 9 0 5
      vertex 9 0 0
    endloop
  endfacet
  facet normal 1 -0 0
    outer loop
      vertex 9 24.5 5
      vertex 9 30 0
      vertex 9 30 5
    endloop
  endfacet
  facet normal 1 0 0
    outer loop
      vertex 9 30 0
      vertex 9 24.5 5
      vertex 9 24.5 0
    endloop
  endfacet
  facet normal -1 0 0
    outer loop
      vertex 45 2.5 7.5
      vertex 45 27.5 10
      vertex 45 27.5 7.5
    endloop
  endfacet
  facet normal -1 -0 0
    outer loop
      vertex 45 27.5 10
      vertex 45 2.5 7.5
      vertex 45 2.5 10
    endloop
  endfacet
  facet normal -1 0 0
    outer loop
      vertex 45 0 0
      vertex 45 30 5
      vertex 45 30 0
    endloop
  endfacet
  facet normal -1 -0 0
    outer loop
      vertex 45 30 5
      vertex 45 0 0
      vertex 45 0 5
    endloop
  endfacet
  facet normal 0 1 -0
    outer loop
      vertex 45 2.5 7.5
      vertex 9 2.5 10
      vertex 45 2.5 10
    endloop
  endfacet
  facet normal 0 1 0
    outer loop
      vertex 9 2.5 10
      vertex 45 2.5 7.5
      vertex 9 2.5 7.5
    endloop
  endfacet
  facet normal 0 -1 0
    outer loop
      vertex 9 27.5 7.5
      vertex 45 27.5 10
      vertex 9 27.5 10
    endloop
  endfacet
  facet normal 0 -1 -0
    outer loop
      vertex 45 27.5 10
      vertex 9 27.5 7.5
      vertex 45 27.5 7.5
    endloop
  endfacet
  facet normal 0 1 0
    outer loop
      vertex 9 5 5
      vertex 9 5 0
      vertex 6 5 5
    endloop
  endfacet
  facet normal 0 1 0
    outer loop
      vertex 6 5 7.5
      vertex 9 5 10
      vertex 9 5 7.5
    endloop
  endfacet
  facet normal 0 1 0
    outer loop
      vertex 9 5 10
      vertex 6 5 7.5
      vertex 0 5 10
    endloop
  endfacet
  facet normal 0 1 -0
    outer loop
      vertex 6 5 5
      vertex 0 5 10
      vertex 6 5 7.5
    endloop
  endfacet
  facet normal 0 1 0
    outer loop
      vertex 0 5 0
      vertex 6 5 5
      vertex 9 5 0
    endloop
  endfacet
  facet normal 0 1 0
    outer loop
      vertex 6 5 5
      vertex 0 5 0
      vertex 0 5 10
    endloop
  endfacet
  facet normal 0 -1 0
    outer loop
      vertex 0 24.5 10
      vertex 6 24.5 7.5
      vertex 9 24.5 10
    endloop
  endfacet
  facet normal 0 -1 0
    outer loop
      vertex 0 24.5 10
      vertex 6 24.5 5
      vertex 6 24.5 7.5
    endloop
  endfacet
  facet normal 0 -1 0
    outer loop
      vertex 0 24.5 0
      vertex 6 24.5 5
      vertex 0 24.5 10
    endloop
  endfacet
  facet normal 0 -1 0
    outer loop
      vertex 9 24.5 0
      vertex 6 24.5 5
      vertex 0 24.5 0
    endloop
  endfacet
  facet normal 0 -1 0
    outer loop
      vertex 6 24.5 5
      vertex 9 24.5 0
      vertex 9 24.5 5
    endloop
  endfacet
  facet normal 0 -1 -0
    outer loop
      vertex 9 24.5 10
      vertex 6 24.5 7.5
      vertex 9 24.5 7.5
    endloop
  endfacet
  facet normal 1 -0 0
    outer loop
      vertex 6 0 7.5
      vertex 6 5 5
      vertex 6 5 7.5
    endloop
  endfacet
  facet normal 1 0 0
    outer loop
      vertex 6 5 5
      vertex 6 0 7.5
      vertex 6 0 5
    endloop
  endfacet
  facet normal 1 -0 0
    outer loop
      vertex 6 24.5 7.5
      vertex 6 30 5
      vertex 6 30 7.5
    endloop
  endfacet
  facet normal 1 0 0
    outer loop
      vertex 6 30 5
      vertex 6 24.5 7.5
      vertex 6 24.5 5
    endloop
  endfacet
  facet normal 0 0 -1
    outer loop
      vertex 9 24.5 7.5
      vertex 6 24.5 7.5
      vertex 9 27.5 7.5
    endloop
  endfacet
  facet normal 0 0 -1
    outer loop
      vertex 48 0 7.5
      vertex 45 2.5 7.5
      vertex 48 30 7.5
    endloop
  endfacet
  facet normal 0 0 -1
    outer loop
      vertex 48 0 7.5
      vertex 9 2.5 7.5
      vertex 45 2.5 7.5
    endloop
  endfacet
  facet normal 0 0 -1
    outer loop
      vertex 6 0 7.5
      vertex 9 2.5 7.5
      vertex 48 0 7.5
    endloop
  endfacet
  facet normal 0 0 -1
    outer loop
      vertex 6 5 7.5
      vertex 9 2.5 7.5
      vertex 6 0 7.5
    endloop
  endfacet
  facet normal 0 0 -1
    outer loop
      vertex 9 2.5 7.5
      vertex 6 5 7.5
      vertex 9 5 7.5
    endloop
  endfacet
  facet normal 0 0 -1
    outer loop
      vertex 45 27.5 7.5
      vertex 48 30 7.5
      vertex 45 2.5 7.5
    endloop
  endfacet
  facet normal 0 0 -1
    outer loop
      vertex 9 27.5 7.5
      vertex 48 30 7.5
      vertex 45 27.5 7.5
    endloop
  endfacet
  facet normal 0 0 -1
    outer loop
      vertex 9 27.5 7.5
      vertex 6 30 7.5
      vertex 48 30 7.5
    endloop
  endfacet
  facet normal 0 0 -1
    outer loop
      vertex 6 30 7.5
      vertex 9 27.5 7.5
      vertex 6 24.5 7.5
    endloop
  endfacet
  facet normal -1 0 0
    outer loop
      vertex 48 0 5
      vertex 48 30 7.5
      vertex 48 30 5
    endloop
  endfacet
  facet normal -1 -0 0
    outer loop
      vertex 48 30 7.5
      vertex 48 0 5
      vertex 48 0 7.5
    endloop
  endfacet
  facet normal -0 0 1
    outer loop
      vertex 6 30 5
      vertex 9 24.5 5
      vertex 9 30 5
    endloop
  endfacet
  facet normal 0 0 1
    outer loop
      vertex 9 24.5 5
      vertex 6 30 5
      vertex 6 24.5 5
    endloop
  endfacet
  facet normal -0 0 1
    outer loop
      vertex 6 5 5
      vertex 9 0 5
      vertex 9 5 5
    endloop
  endfacet
  facet normal 0 0 1
    outer loop
      vertex 9 0 5
      vertex 6 5 5
      vertex 6 0 5
    endloop
  endfacet
  facet normal -0 0 1
    outer loop
      vertex 45 30 5
      vertex 48 0 5
      vertex 48 30 5
    endloop
  endfacet
  facet normal 0 0 1
    outer loop
      vertex 48 0 5
      vertex 45 30 5
      vertex 45 0 5
    endloop
  endfacet
  facet normal 1 -0 0
    outer loop
      vertex 53 0 7.5
      vertex 53 30 0
      vertex 53 30 7.5
    endloop
  endfacet
  facet normal 1 0 0
    outer loop
      vertex 53 30 0
      vertex 53 0 7.5
      vertex 53 0 0
    endloop
  endfacet
  facet normal 0 0 -1
    outer loop
      vertex 132 4 7.5
      vertex 148 15 7.5
      vertex 147.97 14.0581 7.5
    endloop
  endfacet
  facet normal 0 0 -1
    outer loop
      vertex 132 4 7.5
      vertex 147.97 14.0581 7.5
      vertex 147.882 13.12 7.5
    endloop
  endfacet
  facet normal -0 0 -1
    outer loop
      vertex 148 15 7.5
      vertex 132 4 7.5
      vertex 147.97 15.9419 7.5
    endloop
  endfacet
  facet normal 0 0 -1
    outer loop
      vertex 132 4 7.5
      vertex 147.882 13.12 7.5
      vertex 147.734 12.1893 7.5
    endloop
  endfacet
  facet normal 0 0 -1
    outer loop
      vertex 132 26 7.5
      vertex 147.97 15.9419 7.5
      vertex 132 4 7.5
    endloop
  endfacet
  facet normal 0 0 -1
    outer loop
      vertex 132 4 7.5
      vertex 147.734 12.1893 7.5
      vertex 147.529 11.2697 7.5
    endloop
  endfacet
  facet normal 0 0 -1
    outer loop
      vertex 147.97 15.9419 7.5
      vertex 132 26 7.5
      vertex 147.882 16.88 7.5
    endloop
  endfacet
  facet normal 0 0 -1
    outer loop
      vertex 132 4 7.5
      vertex 147.529 11.2697 7.5
      vertex 147.266 10.3647 7.5
    endloop
  endfacet
  facet normal 0 0 -1
    outer loop
      vertex 147.882 16.88 7.5
      vertex 132 26 7.5
      vertex 147.734 17.8107 7.5
    endloop
  endfacet
  facet normal 0 0 -1
    outer loop
      vertex 132 4 7.5
      vertex 147.266 10.3647 7.5
      vertex 146.947 9.47813 7.5
    endloop
  endfacet
  facet normal 0 0 -1
    outer loop
      vertex 147.734 17.8107 7.5
      vertex 132 26 7.5
      vertex 147.529 18.7303 7.5
    endloop
  endfacet
  facet normal 0 0 -1
    outer loop
      vertex 132 4 7.5
      vertex 146.947 9.47813 7.5
      vertex 146.572 8.61331 7.5
    endloop
  endfacet
  facet normal 0 0 -1
    outer loop
      vertex 147.529 18.7303 7.5
      vertex 132 26 7.5
      vertex 147.266 19.6353 7.5
    endloop
  endfacet
  facet normal 0 0 -1
    outer loop
      vertex 132 4 7.5
      vertex 146.572 8.61331 7.5
      vertex 146.145 7.77369 7.5
    endloop
  endfacet
  facet normal 0 0 -1
    outer loop
      vertex 147.266 19.6353 7.5
      vertex 132 26 7.5
      vertex 146.947 20.5219 7.5
    endloop
  endfacet
  facet normal 0 0 -1
    outer loop
      vertex 132 4 7.5
      vertex 146.145 7.77369 7.5
      vertex 145.665 6.9626 7.5
    endloop
  endfacet
  facet normal 0 0 -1
    outer loop
      vertex 146.947 20.5219 7.5
      vertex 132 26 7.5
      vertex 146.572 21.3867 7.5
    endloop
  endfacet
  facet normal 0 0 -1
    outer loop
      vertex 132 4 7.5
      vertex 145.665 6.9626 7.5
      vertex 145.135 6.18322 7.5
    endloop
  endfacet
  facet normal 0 0 -1
    outer loop
      vertex 146.572 21.3867 7.5
      vertex 132 26 7.5
      vertex 146.145 22.2263 7.5
    endloop
  endfacet
  facet normal 0 0 -1
    outer loop
      vertex 132 4 7.5
      vertex 145.135 6.18322 7.5
      vertex 144.558 5.43864 7.5
    endloop
  endfacet
  facet normal 0 0 -1
    outer loop
      vertex 146.145 22.2263 7.5
      vertex 132 26 7.5
      vertex 145.665 23.0374 7.5
    endloop
  endfacet
  facet normal 0 0 -1
    outer loop
      vertex 132 4 7.5
      vertex 144.558 5.43864 7.5
      vertex 143.935 4.73179 7.5
    endloop
  endfacet
  facet normal 0 0 -1
    outer loop
      vertex 145.665 23.0374 7.5
      vertex 132 26 7.5
      vertex 145.135 23.8168 7.5
    endloop
  endfacet
  facet normal 0 0 -1
    outer loop
      vertex 132 4 7.5
      vertex 143.935 4.73179 7.5
      vertex 143.268 4.06547 7.5
    endloop
  endfacet
  facet normal 0 0 -1
    outer loop
      vertex 145.135 23.8168 7.5
      vertex 132 26 7.5
      vertex 144.558 24.5614 7.5
    endloop
  endfacet
  facet normal 0 0 -1
    outer loop
      vertex 132 4 7.5
      vertex 143.268 4.06547 7.5
      vertex 142.561 3.4423 7.5
    endloop
  endfacet
  facet normal 0 0 -1
    outer loop
      vertex 144.558 24.5614 7.5
      vertex 132 26 7.5
      vertex 143.935 25.2682 7.5
    endloop
  endfacet
  facet normal 0 0 -1
    outer loop
      vertex 132 4 7.5
      vertex 142.561 3.4423 7.5
      vertex 141.817 2.86474 7.5
    endloop
  endfacet
  facet normal 0 0 -1
    outer loop
      vertex 143.935 25.2682 7.5
      vertex 132 26 7.5
      vertex 143.268 25.9345 7.5
    endloop
  endfacet
  facet normal 0 0 -1
    outer loop
      vertex 132 4 7.5
      vertex 141.817 2.86474 7.5
      vertex 141.037 2.33508 7.5
    endloop
  endfacet
  facet normal 0 0 -1
    outer loop
      vertex 143.268 25.9345 7.5
      vertex 132 26 7.5
      vertex 142.561 26.5577 7.5
    endloop
  endfacet
  facet normal 0 0 -1
    outer loop
      vertex 132 4 7.5
      vertex 141.037 2.33508 7.5
      vertex 140.226 1.8554 7.5
    endloop
  endfacet
  facet normal -0 0 -1
    outer loop
      vertex 142.561 26.5577 7.5
      vertex 132 26 7.5
      vertex 141.817 27.1353 7.5
    endloop
  endfacet
  facet normal 0 0 -1
    outer loop
      vertex 132 4 7.5
      vertex 140.226 1.8554 7.5
      vertex 139.387 1.42759 7.5
    endloop
  endfacet
  facet normal -0 0 -1
    outer loop
      vertex 141.817 27.1353 7.5
      vertex 132 26 7.5
      vertex 141.037 27.6649 7.5
    endloop
  endfacet
  facet normal 0 0 -1
    outer loop
      vertex 132 4 7.5
      vertex 139.387 1.42759 7.5
      vertex 138.522 1.05335 7.5
    endloop
  endfacet
  facet normal -0 0 -1
    outer loop
      vertex 141.037 27.6649 7.5
      vertex 132 26 7.5
      vertex 140.226 28.1446 7.5
    endloop
  endfacet
  facet normal 0 0 -1
    outer loop
      vertex 132 4 7.5
      vertex 138.522 1.05335 7.5
      vertex 137.635 0.734152 7.5
    endloop
  endfacet
  facet normal -0 0 -1
    outer loop
      vertex 140.226 28.1446 7.5
      vertex 132 26 7.5
      vertex 139.387 28.5724 7.5
    endloop
  endfacet
  facet normal 0 0 -1
    outer loop
      vertex 132 4 7.5
      vertex 137.635 0.734152 7.5
      vertex 136.73 0.471252 7.5
    endloop
  endfacet
  facet normal -0 0 -1
    outer loop
      vertex 139.387 28.5724 7.5
      vertex 132 26 7.5
      vertex 138.522 28.9466 7.5
    endloop
  endfacet
  facet normal 0 0 -1
    outer loop
      vertex 132 4 7.5
      vertex 136.73 0.471252 7.5
      vertex 135.811 0.265691 7.5
    endloop
  endfacet
  facet normal -0 0 -1
    outer loop
      vertex 138.522 28.9466 7.5
      vertex 132 26 7.5
      vertex 137.635 29.2658 7.5
    endloop
  endfacet
  facet normal 0 0 -1
    outer loop
      vertex 132 4 7.5
      vertex 135.811 0.265691 7.5
      vertex 134.88 0.118279 7.5
    endloop
  endfacet
  facet normal -0 0 -1
    outer loop
      vertex 137.635 29.2658 7.5
      vertex 132 26 7.5
      vertex 136.73 29.5287 7.5
    endloop
  endfacet
  facet normal 0 0 -1
    outer loop
      vertex 132 4 7.5
      vertex 134.88 0.118279 7.5
      vertex 133.942 0.0295982 7.5
    endloop
  endfacet
  facet normal -0 0 -1
    outer loop
      vertex 136.73 29.5287 7.5
      vertex 132 26 7.5
      vertex 135.811 29.7343 7.5
    endloop
  endfacet
  facet normal 0 0 -1
    outer loop
      vertex 132 4 7.5
      vertex 133.942 0.0295982 7.5
      vertex 133 0 7.5
    endloop
  endfacet
  facet normal -0 0 -1
    outer loop
      vertex 135.811 29.7343 7.5
      vertex 132 26 7.5
      vertex 134.88 29.8817 7.5
    endloop
  endfacet
  facet normal -0 0 -1
    outer loop
      vertex 134.88 29.8817 7.5
      vertex 132 26 7.5
      vertex 133.942 29.9704 7.5
    endloop
  endfacet
  facet normal 0 0 -1
    outer loop
      vertex 133 0 7.5
      vertex 56 4 7.5
      vertex 132 4 7.5
    endloop
  endfacet
  facet normal -0 0 -1
    outer loop
      vertex 56 4 7.5
      vertex 53 0 7.5
      vertex 56 26 7.5
    endloop
  endfacet
  facet normal 0 0 -1
    outer loop
      vertex 53 0 7.5
      vertex 56 4 7.5
      vertex 133 0 7.5
    endloop
  endfacet
  facet normal -0 0 -1
    outer loop
      vertex 133.942 29.9704 7.5
      vertex 132 26 7.5
      vertex 133 30 7.5
    endloop
  endfacet
  facet normal 0 0 -1
    outer loop
      vertex 56 26 7.5
      vertex 133 30 7.5
      vertex 132 26 7.5
    endloop
  endfacet
  facet normal 0 0 -1
    outer loop
      vertex 56 26 7.5
      vertex 53 30 7.5
      vertex 133 30 7.5
    endloop
  endfacet
  facet normal 0 0 -1
    outer loop
      vertex 53 30 7.5
      vertex 56 26 7.5
      vertex 53 0 7.5
    endloop
  endfacet
  facet normal 1 -0 0
    outer loop
      vertex 56 4 8.5
      vertex 56 26 7.5
      vertex 56 26 8.5
    endloop
  endfacet
  facet normal 1 0 0
    outer loop
      vertex 56 26 7.5
      vertex 56 4 8.5
      vertex 56 4 7.5
    endloop
  endfacet
  facet normal 0 0 -1
    outer loop
      vertex 56 4 8.5
      vertex 132 26 8.5
      vertex 132 4 8.5
    endloop
  endfacet
  facet normal -0 0 -1
    outer loop
      vertex 132 26 8.5
      vertex 56 4 8.5
      vertex 56 26 8.5
    endloop
  endfacet
  facet normal -1 0 0
    outer loop
      vertex 132 4 7.5
      vertex 132 26 8.5
      vertex 132 26 7.5
    endloop
  endfacet
  facet normal -1 -0 0
    outer loop
      vertex 132 26 8.5
      vertex 132 4 7.5
      vertex 132 4 8.5
    endloop
  endfacet
  facet normal 0 -1 0
    outer loop
      vertex 56 26 7.5
      vertex 132 26 8.5
      vertex 56 26 8.5
    endloop
  endfacet
  facet normal 0 -1 -0
    outer loop
      vertex 132 26 8.5
      vertex 56 26 7.5
      vertex 132 26 7.5
    endloop
  endfacet
  facet normal 0 1 -0
    outer loop
      vertex 132 4 7.5
      vertex 56 4 8.5
      vertex 132 4 8.5
    endloop
  endfacet
  facet normal 0 1 0
    outer loop
      vertex 56 4 8.5
      vertex 132 4 7.5
      vertex 56 4 7.5
    endloop
  endfacet
endsolid OpenSCAD_Model
