solid OpenSCAD_Model
  facet normal -1 0 0
    outer loop
      vertex 0 63 0
      vertex 0 60 1.5
      vertex 0 63 9
    endloop
  endfacet
  facet normal -1 0 0
    outer loop
      vertex 0 63 0
      vertex 0 4.5 1.5
      vertex 0 60 1.5
    endloop
  endfacet
  facet normal -1 0 0
    outer loop
      vertex 0 0 0
      vertex 0 4.5 1.5
      vertex 0 63 0
    endloop
  endfacet
  facet normal -1 0 0
    outer loop
      vertex 0 0 9
      vertex 0 4.5 1.5
      vertex 0 0 0
    endloop
  endfacet
  facet normal -1 0 0
    outer loop
      vertex 0 4.5 1.5
      vertex 0 0 9
      vertex 0 4.5 9
    endloop
  endfacet
  facet normal -1 -0 0
    outer loop
      vertex 0 63 9
      vertex 0 60 1.5
      vertex 0 60 9
    endloop
  endfacet
  facet normal -0 0 1
    outer loop
      vertex 0 4.5 9
      vertex 4.5 0 9
      vertex 4.5 4.5 9
    endloop
  endfacet
  facet normal 0 0 1
    outer loop
      vertex 4.5 0 9
      vertex 0 4.5 9
      vertex 0 0 9
    endloop
  endfacet
  facet normal 1 0 0
    outer loop
      vertex 4.5 4.5 9
      vertex 4.5 1.5 7
      vertex 4.5 4.5 7
    endloop
  endfacet
  facet normal 1 0 0
    outer loop
      vertex 4.5 1.5 7
      vertex 4.5 0 9
      vertex 4.5 1.5 5
    endloop
  endfacet
  facet normal 1 -0 0
    outer loop
      vertex 4.5 0 9
      vertex 4.5 1.5 7
      vertex 4.5 4.5 9
    endloop
  endfacet
  facet normal 1 0 0
    outer loop
      vertex 4.5 4.5 5
      vertex 4.5 3 1.5
      vertex 4.5 4.5 0
    endloop
  endfacet
  facet normal 1 -0 0
    outer loop
      vertex 4.5 1.5 5
      vertex 4.5 3 1.5
      vertex 4.5 4.5 5
    endloop
  endfacet
  facet normal 1 0 0
    outer loop
      vertex 4.5 1.5 5
      vertex 4.5 0 1.5
      vertex 4.5 3 1.5
    endloop
  endfacet
  facet normal 1 0 0
    outer loop
      vertex 4.5 0 1.5
      vertex 4.5 1.5 5
      vertex 4.5 0 9
    endloop
  endfacet
  facet normal 1 0 0
    outer loop
      vertex 4.5 4.5 0
      vertex 4.5 3 1.5
      vertex 4.5 3 0
    endloop
  endfacet
  facet normal 0 1 0
    outer loop
      vertex 4.5 4.5 5
      vertex 3 4.5 1.5
      vertex 1.5 4.5 5
    endloop
  endfacet
  facet normal 0 1 -0
    outer loop
      vertex 4.5 4.5 0
      vertex 3 4.5 1.5
      vertex 4.5 4.5 5
    endloop
  endfacet
  facet normal 0 1 0
    outer loop
      vertex 3 4.5 1.5
      vertex 4.5 4.5 0
      vertex 3 4.5 0
    endloop
  endfacet
  facet normal 0 1 0
    outer loop
      vertex 1.5 4.5 7
      vertex 4.5 4.5 9
      vertex 4.5 4.5 7
    endloop
  endfacet
  facet normal 0 1 0
    outer loop
      vertex 4.5 4.5 9
      vertex 1.5 4.5 7
      vertex 0 4.5 9
    endloop
  endfacet
  facet normal 0 1 -0
    outer loop
      vertex 1.5 4.5 5
      vertex 0 4.5 9
      vertex 1.5 4.5 7
    endloop
  endfacet
  facet normal 0 1 0
    outer loop
      vertex 1.5 4.5 5
      vertex 0 4.5 1.5
      vertex 0 4.5 9
    endloop
  endfacet
  facet normal 0 1 0
    outer loop
      vertex 0 4.5 1.5
      vertex 1.5 4.5 5
      vertex 3 4.5 1.5
    endloop
  endfacet
  facet normal 0 0 -1
    outer loop
      vertex 60.5 0 0
      vertex 59 4.5 0
      vertex 60.5 4.5 0
    endloop
  endfacet
  facet normal 0 0 -1
    outer loop
      vertex 56 4.5 0
      vertex 59 4.5 0
      vertex 56 3 0
    endloop
  endfacet
  facet normal 0 0 -1
    outer loop
      vertex 60.5 0 0
      vertex 56 3 0
      vertex 59 4.5 0
    endloop
  endfacet
  facet normal 0 0 -1
    outer loop
      vertex 60.5 0 0
      vertex 4.5 3 0
      vertex 56 3 0
    endloop
  endfacet
  facet normal 0 0 -1
    outer loop
      vertex 4.5 3 0
      vertex 3 4.5 0
      vertex 4.5 4.5 0
    endloop
  endfacet
  facet normal 0 0 -1
    outer loop
      vertex 0 63 0
      vertex 3 4.5 0
      vertex 0 0 0
    endloop
  endfacet
  facet normal -0 0 -1
    outer loop
      vertex 4.5 3 0
      vertex 0 0 0
      vertex 3 4.5 0
    endloop
  endfacet
  facet normal 0 0 -1
    outer loop
      vertex 0 0 0
      vertex 4.5 3 0
      vertex 60.5 0 0
    endloop
  endfacet
  facet normal 0 0 -1
    outer loop
      vertex 59 60 0
      vertex 60.5 63 0
      vertex 60.5 60 0
    endloop
  endfacet
  facet normal 0 0 -1
    outer loop
      vertex 59 4.5 0
      vertex 56 4.5 0
      vertex 59 60 0
    endloop
  endfacet
  facet normal 0 0 -1
    outer loop
      vertex 56 60 0
      vertex 59 60 0
      vertex 56 4.5 0
    endloop
  endfacet
  facet normal 0 0 -1
    outer loop
      vertex 56 60 0
      vertex 60.5 63 0
      vertex 59 60 0
    endloop
  endfacet
  facet normal 0 0 -1
    outer loop
      vertex 4.5 60 0
      vertex 60.5 63 0
      vertex 56 60 0
    endloop
  endfacet
  facet normal 0 0 -1
    outer loop
      vertex 0 63 0
      vertex 4.5 60 0
      vertex 3 60 0
    endloop
  endfacet
  facet normal 0 0 -1
    outer loop
      vertex 4.5 60 0
      vertex 0 63 0
      vertex 60.5 63 0
    endloop
  endfacet
  facet normal 0 0 -1
    outer loop
      vertex 3 4.5 0
      vertex 0 63 0
      vertex 3 60 0
    endloop
  endfacet
  facet normal 0 -1 0
    outer loop
      vertex 0 0 9
      vertex 4.5 0 1.5
      vertex 4.5 0 9
    endloop
  endfacet
  facet normal 0 -1 -0
    outer loop
      vertex 4.5 0 1.5
      vertex 0 0 0
      vertex 56 0 1.5
    endloop
  endfacet
  facet normal 0 -1 0
    outer loop
      vertex 0 0 0
      vertex 4.5 0 1.5
      vertex 0 0 9
    endloop
  endfacet
  facet normal 0 -1 0
    outer loop
      vertex 56 0 1.5
      vertex 60.5 0 9
      vertex 56 0 9
    endloop
  endfacet
  facet normal 0 -1 0
    outer loop
      vertex 56 0 1.5
      vertex 60.5 0 0
      vertex 60.5 0 9
    endloop
  endfacet
  facet normal 0 -1 0
    outer loop
      vertex 60.5 0 0
      vertex 56 0 1.5
      vertex 0 0 0
    endloop
  endfacet
  facet normal 1 -0 0
    outer loop
      vertex 1.5 1.5 7
      vertex 1.5 4.5 5
      vertex 1.5 4.5 7
    endloop
  endfacet
  facet normal 1 0 0
    outer loop
      vertex 1.5 4.5 5
      vertex 1.5 1.5 7
      vertex 1.5 1.5 5
    endloop
  endfacet
  facet normal 0 0 -1
    outer loop
      vertex 1.5 1.5 7
      vertex 4.5 4.5 7
      vertex 4.5 1.5 7
    endloop
  endfacet
  facet normal -0 0 -1
    outer loop
      vertex 4.5 4.5 7
      vertex 1.5 1.5 7
      vertex 1.5 4.5 7
    endloop
  endfacet
  facet normal -0 0 1
    outer loop
      vertex 1.5 4.5 5
      vertex 4.5 1.5 5
      vertex 4.5 4.5 5
    endloop
  endfacet
  facet normal 0 0 1
    outer loop
      vertex 4.5 1.5 5
      vertex 1.5 4.5 5
      vertex 1.5 1.5 5
    endloop
  endfacet
  facet normal 0 1 -0
    outer loop
      vertex 4.5 1.5 5
      vertex 1.5 1.5 7
      vertex 4.5 1.5 7
    endloop
  endfacet
  facet normal 0 1 0
    outer loop
      vertex 1.5 1.5 7
      vertex 4.5 1.5 5
      vertex 1.5 1.5 5
    endloop
  endfacet
  facet normal -0 0 1
    outer loop
      vertex 0 60 1.5
      vertex 3 4.5 1.5
      vertex 3 60 1.5
    endloop
  endfacet
  facet normal 0 0 1
    outer loop
      vertex 3 4.5 1.5
      vertex 0 60 1.5
      vertex 0 4.5 1.5
    endloop
  endfacet
  facet normal -0 0 1
    outer loop
      vertex 56 60 1.5
      vertex 59 4.5 1.5
      vertex 59 60 1.5
    endloop
  endfacet
  facet normal 0 0 1
    outer loop
      vertex 59 4.5 1.5
      vertex 56 60 1.5
      vertex 56 4.5 1.5
    endloop
  endfacet
  facet normal -0 0 1
    outer loop
      vertex 4.5 63 1.5
      vertex 56 60 1.5
      vertex 56 63 1.5
    endloop
  endfacet
  facet normal 0 0 1
    outer loop
      vertex 56 60 1.5
      vertex 4.5 63 1.5
      vertex 4.5 60 1.5
    endloop
  endfacet
  facet normal -0 0 1
    outer loop
      vertex 4.5 3 1.5
      vertex 56 0 1.5
      vertex 56 3 1.5
    endloop
  endfacet
  facet normal 0 0 1
    outer loop
      vertex 56 0 1.5
      vertex 4.5 3 1.5
      vertex 4.5 0 1.5
    endloop
  endfacet
  facet normal 1 -0 0
    outer loop
      vertex 59 4.5 1.5
      vertex 59 60 0
      vertex 59 60 1.5
    endloop
  endfacet
  facet normal 1 0 0
    outer loop
      vertex 59 60 0
      vertex 59 4.5 1.5
      vertex 59 4.5 0
    endloop
  endfacet
  facet normal 0 1 0
    outer loop
      vertex 60.5 63 9
      vertex 59 63 7
      vertex 56 63 9
    endloop
  endfacet
  facet normal 0 1 0
    outer loop
      vertex 60.5 63 9
      vertex 59 63 5
      vertex 59 63 7
    endloop
  endfacet
  facet normal 0 1 0
    outer loop
      vertex 59 63 5
      vertex 56 63 1.5
      vertex 56 63 5
    endloop
  endfacet
  facet normal 0 1 0
    outer loop
      vertex 56 63 1.5
      vertex 60.5 63 0
      vertex 4.5 63 1.5
    endloop
  endfacet
  facet normal 0 1 0
    outer loop
      vertex 59 63 5
      vertex 60.5 63 0
      vertex 56 63 1.5
    endloop
  endfacet
  facet normal 0 1 -0
    outer loop
      vertex 60.5 63 0
      vertex 59 63 5
      vertex 60.5 63 9
    endloop
  endfacet
  facet normal 0 1 0
    outer loop
      vertex 56 63 9
      vertex 59 63 7
      vertex 56 63 7
    endloop
  endfacet
  facet normal 0 1 0
    outer loop
      vertex 4.5 63 5
      vertex 4.5 63 1.5
      vertex 1.5 63 5
    endloop
  endfacet
  facet normal 0 1 0
    outer loop
      vertex 1.5 63 7
      vertex 4.5 63 9
      vertex 4.5 63 7
    endloop
  endfacet
  facet normal 0 1 0
    outer loop
      vertex 4.5 63 9
      vertex 1.5 63 7
      vertex 0 63 9
    endloop
  endfacet
  facet normal 0 1 -0
    outer loop
      vertex 1.5 63 5
      vertex 0 63 9
      vertex 1.5 63 7
    endloop
  endfacet
  facet normal 0 1 0
    outer loop
      vertex 1.5 63 5
      vertex 0 63 0
      vertex 0 63 9
    endloop
  endfacet
  facet normal 0 1 0
    outer loop
      vertex 4.5 63 1.5
      vertex 0 63 0
      vertex 1.5 63 5
    endloop
  endfacet
  facet normal 0 1 0
    outer loop
      vertex 0 63 0
      vertex 4.5 63 1.5
      vertex 60.5 63 0
    endloop
  endfacet
  facet normal 1 -0 0
    outer loop
      vertex 3 4.5 1.5
      vertex 3 60 0
      vertex 3 60 1.5
    endloop
  endfacet
  facet normal 1 0 0
    outer loop
      vertex 3 60 0
      vertex 3 4.5 1.5
      vertex 3 4.5 0
    endloop
  endfacet
  facet normal -1 0 0
    outer loop
      vertex 56 4.5 0
      vertex 56 60 1.5
      vertex 56 60 0
    endloop
  endfacet
  facet normal -1 -0 0
    outer loop
      vertex 56 60 1.5
      vertex 56 4.5 0
      vertex 56 4.5 1.5
    endloop
  endfacet
  facet normal -1 0 0
    outer loop
      vertex 56 3 1.5
      vertex 56 4.5 1.5
      vertex 56 4.5 0
    endloop
  endfacet
  facet normal -1 0 0
    outer loop
      vertex 56 3 1.5
      vertex 56 4.5 0
      vertex 56 3 0
    endloop
  endfacet
  facet normal -1 0 0
    outer loop
      vertex 56 4.5 1.5
      vertex 56 3 1.5
      vertex 56 4.5 5
    endloop
  endfacet
  facet normal -1 0 0
    outer loop
      vertex 56 3 1.5
      vertex 56 1.5 5
      vertex 56 4.5 5
    endloop
  endfacet
  facet normal -1 0 0
    outer loop
      vertex 56 0 9
      vertex 56 1.5 5
      vertex 56 0 1.5
    endloop
  endfacet
  facet normal -1 0 0
    outer loop
      vertex 56 0 1.5
      vertex 56 1.5 5
      vertex 56 3 1.5
    endloop
  endfacet
  facet normal -1 0 0
    outer loop
      vertex 56 1.5 7
      vertex 56 4.5 9
      vertex 56 4.5 7
    endloop
  endfacet
  facet normal -1 0 0
    outer loop
      vertex 56 1.5 7
      vertex 56 0 9
      vertex 56 4.5 9
    endloop
  endfacet
  facet normal -1 0 0
    outer loop
      vertex 56 1.5 5
      vertex 56 0 9
      vertex 56 1.5 7
    endloop
  endfacet
  facet normal 0 1 -0
    outer loop
      vertex 56 3 0
      vertex 4.5 3 1.5
      vertex 56 3 1.5
    endloop
  endfacet
  facet normal 0 1 0
    outer loop
      vertex 4.5 3 1.5
      vertex 56 3 0
      vertex 4.5 3 0
    endloop
  endfacet
  facet normal 0 -1 0
    outer loop
      vertex 4.5 60 0
      vertex 56 60 1.5
      vertex 4.5 60 1.5
    endloop
  endfacet
  facet normal 0 -1 -0
    outer loop
      vertex 56 60 1.5
      vertex 4.5 60 0
      vertex 56 60 0
    endloop
  endfacet
  facet normal 0 -1 0
    outer loop
      vertex 0 60 9
      vertex 1.5 60 7
      vertex 4.5 60 9
    endloop
  endfacet
  facet normal 0 -1 0
    outer loop
      vertex 0 60 9
      vertex 1.5 60 5
      vertex 1.5 60 7
    endloop
  endfacet
  facet normal 0 -1 0
    outer loop
      vertex 0 60 1.5
      vertex 1.5 60 5
      vertex 0 60 9
    endloop
  endfacet
  facet normal 0 -1 0
    outer loop
      vertex 3 60 1.5
      vertex 1.5 60 5
      vertex 0 60 1.5
    endloop
  endfacet
  facet normal 0 -1 0
    outer loop
      vertex 1.5 60 5
      vertex 3 60 1.5
      vertex 4.5 60 5
    endloop
  endfacet
  facet normal 0 -1 0
    outer loop
      vertex 3 60 1.5
      vertex 4.5 60 1.5
      vertex 4.5 60 5
    endloop
  endfacet
  facet normal 0 -1 0
    outer loop
      vertex 3 60 0
      vertex 4.5 60 1.5
      vertex 3 60 1.5
    endloop
  endfacet
  facet normal 0 -1 -0
    outer loop
      vertex 4.5 60 1.5
      vertex 3 60 0
      vertex 4.5 60 0
    endloop
  endfacet
  facet normal 0 -1 -0
    outer loop
      vertex 4.5 60 9
      vertex 1.5 60 7
      vertex 4.5 60 7
    endloop
  endfacet
  facet normal -0 0 1
    outer loop
      vertex 56 4.5 9
      vertex 60.5 0 9
      vertex 60.5 4.5 9
    endloop
  endfacet
  facet normal 0 0 1
    outer loop
      vertex 60.5 0 9
      vertex 56 4.5 9
      vertex 56 0 9
    endloop
  endfacet
  facet normal 1 -0 0
    outer loop
      vertex 60.5 0 9
      vertex 60.5 4.5 0
      vertex 60.5 4.5 9
    endloop
  endfacet
  facet normal 1 0 0
    outer loop
      vertex 60.5 4.5 0
      vertex 60.5 0 9
      vertex 60.5 0 0
    endloop
  endfacet
  facet normal 0 1 0
    outer loop
      vertex 60.5 4.5 9
      vertex 59 4.5 7
      vertex 56 4.5 9
    endloop
  endfacet
  facet normal 0 1 0
    outer loop
      vertex 60.5 4.5 9
      vertex 59 4.5 5
      vertex 59 4.5 7
    endloop
  endfacet
  facet normal 0 1 0
    outer loop
      vertex 59 4.5 5
      vertex 59 4.5 1.5
      vertex 56 4.5 5
    endloop
  endfacet
  facet normal 0 1 -0
    outer loop
      vertex 60.5 4.5 0
      vertex 59 4.5 5
      vertex 60.5 4.5 9
    endloop
  endfacet
  facet normal 0 1 0
    outer loop
      vertex 59 4.5 5
      vertex 60.5 4.5 0
      vertex 59 4.5 1.5
    endloop
  endfacet
  facet normal 0 1 0
    outer loop
      vertex 59 4.5 1.5
      vertex 60.5 4.5 0
      vertex 59 4.5 0
    endloop
  endfacet
  facet normal 0 1 0
    outer loop
      vertex 56 4.5 9
      vertex 59 4.5 7
      vertex 56 4.5 7
    endloop
  endfacet
  facet normal 0 1 0
    outer loop
      vertex 56 4.5 5
      vertex 59 4.5 1.5
      vertex 56 4.5 1.5
    endloop
  endfacet
  facet normal 0 0 -1
    outer loop
      vertex 56 1.5 7
      vertex 59 4.5 7
      vertex 59 1.5 7
    endloop
  endfacet
  facet normal -0 0 -1
    outer loop
      vertex 59 4.5 7
      vertex 56 1.5 7
      vertex 56 4.5 7
    endloop
  endfacet
  facet normal -1 0 0
    outer loop
      vertex 59 1.5 5
      vertex 59 4.5 7
      vertex 59 4.5 5
    endloop
  endfacet
  facet normal -1 -0 0
    outer loop
      vertex 59 4.5 7
      vertex 59 1.5 5
      vertex 59 1.5 7
    endloop
  endfacet
  facet normal -0 0 1
    outer loop
      vertex 56 4.5 5
      vertex 59 1.5 5
      vertex 59 4.5 5
    endloop
  endfacet
  facet normal 0 0 1
    outer loop
      vertex 59 1.5 5
      vertex 56 4.5 5
      vertex 56 1.5 5
    endloop
  endfacet
  facet normal 0 1 -0
    outer loop
      vertex 59 1.5 5
      vertex 56 1.5 7
      vertex 59 1.5 7
    endloop
  endfacet
  facet normal 0 1 0
    outer loop
      vertex 56 1.5 7
      vertex 59 1.5 5
      vertex 56 1.5 5
    endloop
  endfacet
  facet normal -0 0 1
    outer loop
      vertex 0 63 9
      vertex 4.5 60 9
      vertex 4.5 63 9
    endloop
  endfacet
  facet normal 0 0 1
    outer loop
      vertex 4.5 60 9
      vertex 0 63 9
      vertex 0 60 9
    endloop
  endfacet
  facet normal 1 -0 0
    outer loop
      vertex 4.5 60 9
      vertex 4.5 63 7
      vertex 4.5 63 9
    endloop
  endfacet
  facet normal 1 0 0
    outer loop
      vertex 4.5 63 7
      vertex 4.5 60 9
      vertex 4.5 60 7
    endloop
  endfacet
  facet normal 1 -0 0
    outer loop
      vertex 4.5 60 5
      vertex 4.5 63 1.5
      vertex 4.5 63 5
    endloop
  endfacet
  facet normal 1 0 0
    outer loop
      vertex 4.5 63 1.5
      vertex 4.5 60 5
      vertex 4.5 60 1.5
    endloop
  endfacet
  facet normal 1 -0 0
    outer loop
      vertex 1.5 60 7
      vertex 1.5 63 5
      vertex 1.5 63 7
    endloop
  endfacet
  facet normal 1 0 0
    outer loop
      vertex 1.5 63 5
      vertex 1.5 60 7
      vertex 1.5 60 5
    endloop
  endfacet
  facet normal 0 0 -1
    outer loop
      vertex 1.5 60 7
      vertex 4.5 63 7
      vertex 4.5 60 7
    endloop
  endfacet
  facet normal -0 0 -1
    outer loop
      vertex 4.5 63 7
      vertex 1.5 60 7
      vertex 1.5 63 7
    endloop
  endfacet
  facet normal -0 0 1
    outer loop
      vertex 1.5 63 5
      vertex 4.5 60 5
      vertex 4.5 63 5
    endloop
  endfacet
  facet normal 0 0 1
    outer loop
      vertex 4.5 60 5
      vertex 1.5 63 5
      vertex 1.5 60 5
    endloop
  endfacet
  facet normal -1 0 0
    outer loop
      vertex 56 60 7
      vertex 56 63 9
      vertex 56 63 7
    endloop
  endfacet
  facet normal -1 -0 0
    outer loop
      vertex 56 63 9
      vertex 56 60 7
      vertex 56 60 9
    endloop
  endfacet
  facet normal -1 0 0
    outer loop
      vertex 56 60 1.5
      vertex 56 63 5
      vertex 56 63 1.5
    endloop
  endfacet
  facet normal -1 -0 0
    outer loop
      vertex 56 63 5
      vertex 56 60 1.5
      vertex 56 60 5
    endloop
  endfacet
  facet normal -0 0 1
    outer loop
      vertex 56 63 9
      vertex 60.5 60 9
      vertex 60.5 63 9
    endloop
  endfacet
  facet normal 0 0 1
    outer loop
      vertex 60.5 60 9
      vertex 56 63 9
      vertex 56 60 9
    endloop
  endfacet
  facet normal 1 -0 0
    outer loop
      vertex 60.5 60 9
      vertex 60.5 63 0
      vertex 60.5 63 9
    endloop
  endfacet
  facet normal 1 0 0
    outer loop
      vertex 60.5 63 0
      vertex 60.5 60 9
      vertex 60.5 60 0
    endloop
  endfacet
  facet normal 0 -1 0
    outer loop
      vertex 56 60 5
      vertex 56 60 1.5
      vertex 59 60 5
    endloop
  endfacet
  facet normal 0 -1 0
    outer loop
      vertex 59 60 7
      vertex 56 60 9
      vertex 56 60 7
    endloop
  endfacet
  facet normal 0 -1 0
    outer loop
      vertex 56 60 9
      vertex 59 60 7
      vertex 60.5 60 9
    endloop
  endfacet
  facet normal 0 -1 0
    outer loop
      vertex 59 60 5
      vertex 60.5 60 9
      vertex 59 60 7
    endloop
  endfacet
  facet normal 0 -1 0
    outer loop
      vertex 59 60 1.5
      vertex 59 60 5
      vertex 56 60 1.5
    endloop
  endfacet
  facet normal 0 -1 0
    outer loop
      vertex 60.5 60 0
      vertex 59 60 5
      vertex 59 60 1.5
    endloop
  endfacet
  facet normal 0 -1 0
    outer loop
      vertex 60.5 60 0
      vertex 59 60 1.5
      vertex 59 60 0
    endloop
  endfacet
  facet normal 0 -1 0
    outer loop
      vertex 59 60 5
      vertex 60.5 60 0
      vertex 60.5 60 9
    endloop
  endfacet
  facet normal 0 0 -1
    outer loop
      vertex 56 60 7
      vertex 59 63 7
      vertex 59 60 7
    endloop
  endfacet
  facet normal -0 0 -1
    outer loop
      vertex 59 63 7
      vertex 56 60 7
      vertex 56 63 7
    endloop
  endfacet
  facet normal -1 0 0
    outer loop
      vertex 59 60 5
      vertex 59 63 7
      vertex 59 63 5
    endloop
  endfacet
  facet normal -1 -0 0
    outer loop
      vertex 59 63 7
      vertex 59 60 5
      vertex 59 60 7
    endloop
  endfacet
  facet normal -0 0 1
    outer loop
      vertex 56 63 5
      vertex 59 60 5
      vertex 59 63 5
    endloop
  endfacet
  facet normal 0 0 1
    outer loop
      vertex 59 60 5
      vertex 56 63 5
      vertex 56 60 5
    endloop
  endfacet
endsolid OpenSCAD_Model
