solid OpenSCAD_Model
  facet normal -1 0 0
    outer loop
      vertex 0 0 0
      vertex 0 26.5 4
      vertex 0 26.5 0
    endloop
  endfacet
  facet normal -1 -0 0
    outer loop
      vertex 0 26.5 4
      vertex 0 0 0
      vertex 0 0 4
    endloop
  endfacet
  facet normal -0 0 1
    outer loop
      vertex 1.5 26.5 1.3
      vertex 18 24.5 1.3
      vertex 18 26.5 1.3
    endloop
  endfacet
  facet normal 0 0 1
    outer loop
      vertex 18 24.5 1.3
      vertex 1.5 26.5 1.3
      vertex 18 2 1.3
    endloop
  endfacet
  facet normal 0 0 1
    outer loop
      vertex 1.5 0 1.3
      vertex 18 2 1.3
      vertex 1.5 26.5 1.3
    endloop
  endfacet
  facet normal 0 0 1
    outer loop
      vertex 18 2 1.3
      vertex 1.5 0 1.3
      vertex 18 0 1.3
    endloop
  endfacet
  facet normal 0 0 1
    outer loop
      vertex 39.7434 5 1.3
      vertex 41 2 1.3
      vertex 41.5 3.72372 1.3
    endloop
  endfacet
  facet normal -0 0 1
    outer loop
      vertex 30 5 1.3
      vertex 41 2 1.3
      vertex 39.7434 5 1.3
    endloop
  endfacet
  facet normal 0 0 1
    outer loop
      vertex 30 5 1.3
      vertex 18 2 1.3
      vertex 41 2 1.3
    endloop
  endfacet
  facet normal 0 0 1
    outer loop
      vertex 18 2 1.3
      vertex 30 5 1.3
      vertex 18 24.5 1.3
    endloop
  endfacet
  facet normal 0 0 1
    outer loop
      vertex 60 26.5 1.3
      vertex 58 13.25 1.3
      vertex 60 0 1.3
    endloop
  endfacet
  facet normal 0 0 1
    outer loop
      vertex 60 26.5 1.3
      vertex 57.7596 15.537 1.3
      vertex 58 13.25 1.3
    endloop
  endfacet
  facet normal 0 0 1
    outer loop
      vertex 60 26.5 1.3
      vertex 57.049 17.7241 1.3
      vertex 57.7596 15.537 1.3
    endloop
  endfacet
  facet normal 0 0 1
    outer loop
      vertex 60 26.5 1.3
      vertex 55.8992 19.7156 1.3
      vertex 57.049 17.7241 1.3
    endloop
  endfacet
  facet normal 0 0 1
    outer loop
      vertex 60 26.5 1.3
      vertex 54.3604 21.4246 1.3
      vertex 55.8992 19.7156 1.3
    endloop
  endfacet
  facet normal 0 0 1
    outer loop
      vertex 60 26.5 1.3
      vertex 52.5 22.7763 1.3
      vertex 54.3604 21.4246 1.3
    endloop
  endfacet
  facet normal 0 0 1
    outer loop
      vertex 60 26.5 1.3
      vertex 50.3992 23.7116 1.3
      vertex 52.5 22.7763 1.3
    endloop
  endfacet
  facet normal 0 0 1
    outer loop
      vertex 60 26.5 1.3
      vertex 48.1498 24.1897 1.3
      vertex 50.3992 23.7116 1.3
    endloop
  endfacet
  facet normal -0 0 1
    outer loop
      vertex 41 26.5 1.3
      vertex 48.1498 24.1897 1.3
      vertex 60 26.5 1.3
    endloop
  endfacet
  facet normal 0 0 1
    outer loop
      vertex 48.1498 24.1897 1.3
      vertex 41 26.5 1.3
      vertex 45.8502 24.1897 1.3
    endloop
  endfacet
  facet normal 0 0 1
    outer loop
      vertex 41 26.5 1.3
      vertex 43.6008 23.7116 1.3
      vertex 45.8502 24.1897 1.3
    endloop
  endfacet
  facet normal -0 0 1
    outer loop
      vertex 41 24.5 1.3
      vertex 43.6008 23.7116 1.3
      vertex 41 26.5 1.3
    endloop
  endfacet
  facet normal 0 0 1
    outer loop
      vertex 43.6008 23.7116 1.3
      vertex 41 24.5 1.3
      vertex 41.5 22.7763 1.3
    endloop
  endfacet
  facet normal 0 0 1
    outer loop
      vertex 41 24.5 1.3
      vertex 39.7434 21.5 1.3
      vertex 41.5 22.7763 1.3
    endloop
  endfacet
  facet normal 0 0 1
    outer loop
      vertex 41 24.5 1.3
      vertex 30 21.5 1.3
      vertex 39.7434 21.5 1.3
    endloop
  endfacet
  facet normal 0 0 1
    outer loop
      vertex 30 21.5 1.3
      vertex 18 24.5 1.3
      vertex 30 5 1.3
    endloop
  endfacet
  facet normal -0 0 1
    outer loop
      vertex 18 24.5 1.3
      vertex 30 21.5 1.3
      vertex 41 24.5 1.3
    endloop
  endfacet
  facet normal -0 0 1
    outer loop
      vertex 57.7596 10.963 1.3
      vertex 60 0 1.3
      vertex 58 13.25 1.3
    endloop
  endfacet
  facet normal -0 0 1
    outer loop
      vertex 57.049 8.7759 1.3
      vertex 60 0 1.3
      vertex 57.7596 10.963 1.3
    endloop
  endfacet
  facet normal -0 0 1
    outer loop
      vertex 55.8992 6.78436 1.3
      vertex 60 0 1.3
      vertex 57.049 8.7759 1.3
    endloop
  endfacet
  facet normal -0 0 1
    outer loop
      vertex 54.3604 5.07541 1.3
      vertex 60 0 1.3
      vertex 55.8992 6.78436 1.3
    endloop
  endfacet
  facet normal -0 0 1
    outer loop
      vertex 52.5 3.72372 1.3
      vertex 60 0 1.3
      vertex 54.3604 5.07541 1.3
    endloop
  endfacet
  facet normal -0 0 1
    outer loop
      vertex 50.3992 2.78838 1.3
      vertex 60 0 1.3
      vertex 52.5 3.72372 1.3
    endloop
  endfacet
  facet normal -0 0 1
    outer loop
      vertex 48.1498 2.31026 1.3
      vertex 60 0 1.3
      vertex 50.3992 2.78838 1.3
    endloop
  endfacet
  facet normal 0 0 1
    outer loop
      vertex 41 0 1.3
      vertex 48.1498 2.31026 1.3
      vertex 45.8502 2.31026 1.3
    endloop
  endfacet
  facet normal 0 0 1
    outer loop
      vertex 41 2 1.3
      vertex 43.6008 2.78838 1.3
      vertex 41.5 3.72372 1.3
    endloop
  endfacet
  facet normal 0 0 1
    outer loop
      vertex 41 0 1.3
      vertex 43.6008 2.78838 1.3
      vertex 41 2 1.3
    endloop
  endfacet
  facet normal 0 0 1
    outer loop
      vertex 43.6008 2.78838 1.3
      vertex 41 0 1.3
      vertex 45.8502 2.31026 1.3
    endloop
  endfacet
  facet normal 0 0 1
    outer loop
      vertex 48.1498 2.31026 1.3
      vertex 41 0 1.3
      vertex 60 0 1.3
    endloop
  endfacet
  facet normal 1 -0 0
    outer loop
      vertex 60 0 1.3
      vertex 60 26.5 0
      vertex 60 26.5 1.3
    endloop
  endfacet
  facet normal 1 0 0
    outer loop
      vertex 60 26.5 0
      vertex 60 0 1.3
      vertex 60 0 0
    endloop
  endfacet
  facet normal 0 1 -0
    outer loop
      vertex 60 26.5 0
      vertex 41 26.5 1.3
      vertex 60 26.5 1.3
    endloop
  endfacet
  facet normal 0 1 0
    outer loop
      vertex 41 26.5 1.3
      vertex 60 26.5 0
      vertex 41 26.5 0
    endloop
  endfacet
  facet normal 0 1 0
    outer loop
      vertex 18 26.5 1.3
      vertex 18 26.5 0
      vertex 1.5 26.5 1.3
    endloop
  endfacet
  facet normal 0 1 -0
    outer loop
      vertex 1.5 26.5 1.3
      vertex 0 26.5 4
      vertex 1.5 26.5 4
    endloop
  endfacet
  facet normal 0 1 0
    outer loop
      vertex 1.5 26.5 1.3
      vertex 0 26.5 0
      vertex 0 26.5 4
    endloop
  endfacet
  facet normal 0 1 0
    outer loop
      vertex 0 26.5 0
      vertex 1.5 26.5 1.3
      vertex 18 26.5 0
    endloop
  endfacet
  facet normal 0 0 -1
    outer loop
      vertex 0 0 0
      vertex 18 2 0
      vertex 18 0 0
    endloop
  endfacet
  facet normal -0 0 -1
    outer loop
      vertex 18 2 0
      vertex 0 0 0
      vertex 18 24.5 0
    endloop
  endfacet
  facet normal 0 0 -1
    outer loop
      vertex 0 26.5 0
      vertex 18 24.5 0
      vertex 0 0 0
    endloop
  endfacet
  facet normal 0 0 -1
    outer loop
      vertex 18 24.5 0
      vertex 0 26.5 0
      vertex 18 26.5 0
    endloop
  endfacet
  facet normal 0 0 -1
    outer loop
      vertex 39.7434 21.5 0
      vertex 41 24.5 0
      vertex 41.5 22.7763 0
    endloop
  endfacet
  facet normal 0 0 -1
    outer loop
      vertex 30 21.5 0
      vertex 41 24.5 0
      vertex 39.7434 21.5 0
    endloop
  endfacet
  facet normal 0 0 -1
    outer loop
      vertex 30 21.5 0
      vertex 18 24.5 0
      vertex 41 24.5 0
    endloop
  endfacet
  facet normal 0 0 -1
    outer loop
      vertex 18 24.5 0
      vertex 30 21.5 0
      vertex 18 2 0
    endloop
  endfacet
  facet normal 0 0 -1
    outer loop
      vertex 60 0 0
      vertex 58 13.25 0
      vertex 60 26.5 0
    endloop
  endfacet
  facet normal 0 0 -1
    outer loop
      vertex 60 0 0
      vertex 57.7596 10.963 0
      vertex 58 13.25 0
    endloop
  endfacet
  facet normal 0 0 -1
    outer loop
      vertex 60 0 0
      vertex 57.049 8.7759 0
      vertex 57.7596 10.963 0
    endloop
  endfacet
  facet normal 0 0 -1
    outer loop
      vertex 60 0 0
      vertex 55.8992 6.78436 0
      vertex 57.049 8.7759 0
    endloop
  endfacet
  facet normal 0 0 -1
    outer loop
      vertex 60 0 0
      vertex 54.3604 5.07541 0
      vertex 55.8992 6.78436 0
    endloop
  endfacet
  facet normal 0 0 -1
    outer loop
      vertex 60 0 0
      vertex 52.5 3.72372 0
      vertex 54.3604 5.07541 0
    endloop
  endfacet
  facet normal 0 0 -1
    outer loop
      vertex 60 0 0
      vertex 50.3992 2.78838 0
      vertex 52.5 3.72372 0
    endloop
  endfacet
  facet normal 0 0 -1
    outer loop
      vertex 60 0 0
      vertex 48.1498 2.31026 0
      vertex 50.3992 2.78838 0
    endloop
  endfacet
  facet normal 0 0 -1
    outer loop
      vertex 41 0 0
      vertex 48.1498 2.31026 0
      vertex 60 0 0
    endloop
  endfacet
  facet normal -0 0 -1
    outer loop
      vertex 48.1498 2.31026 0
      vertex 41 0 0
      vertex 45.8502 2.31026 0
    endloop
  endfacet
  facet normal 0 0 -1
    outer loop
      vertex 41 0 0
      vertex 43.6008 2.78838 0
      vertex 45.8502 2.31026 0
    endloop
  endfacet
  facet normal 0 0 -1
    outer loop
      vertex 41 2 0
      vertex 43.6008 2.78838 0
      vertex 41 0 0
    endloop
  endfacet
  facet normal -0 0 -1
    outer loop
      vertex 43.6008 2.78838 0
      vertex 41 2 0
      vertex 41.5 3.72372 0
    endloop
  endfacet
  facet normal 0 0 -1
    outer loop
      vertex 41 2 0
      vertex 39.7434 5 0
      vertex 41.5 3.72372 0
    endloop
  endfacet
  facet normal 0 0 -1
    outer loop
      vertex 41 2 0
      vertex 30 5 0
      vertex 39.7434 5 0
    endloop
  endfacet
  facet normal -0 0 -1
    outer loop
      vertex 30 5 0
      vertex 18 2 0
      vertex 30 21.5 0
    endloop
  endfacet
  facet normal 0 0 -1
    outer loop
      vertex 18 2 0
      vertex 30 5 0
      vertex 41 2 0
    endloop
  endfacet
  facet normal 0 0 -1
    outer loop
      vertex 57.7596 15.537 0
      vertex 60 26.5 0
      vertex 58 13.25 0
    endloop
  endfacet
  facet normal 0 0 -1
    outer loop
      vertex 57.049 17.7241 0
      vertex 60 26.5 0
      vertex 57.7596 15.537 0
    endloop
  endfacet
  facet normal 0 0 -1
    outer loop
      vertex 55.8992 19.7156 0
      vertex 60 26.5 0
      vertex 57.049 17.7241 0
    endloop
  endfacet
  facet normal 0 0 -1
    outer loop
      vertex 54.3604 21.4246 0
      vertex 60 26.5 0
      vertex 55.8992 19.7156 0
    endloop
  endfacet
  facet normal 0 0 -1
    outer loop
      vertex 52.5 22.7763 0
      vertex 60 26.5 0
      vertex 54.3604 21.4246 0
    endloop
  endfacet
  facet normal 0 0 -1
    outer loop
      vertex 50.3992 23.7116 0
      vertex 60 26.5 0
      vertex 52.5 22.7763 0
    endloop
  endfacet
  facet normal 0 0 -1
    outer loop
      vertex 48.1498 24.1897 0
      vertex 60 26.5 0
      vertex 50.3992 23.7116 0
    endloop
  endfacet
  facet normal 0 0 -1
    outer loop
      vertex 41 26.5 0
      vertex 48.1498 24.1897 0
      vertex 45.8502 24.1897 0
    endloop
  endfacet
  facet normal 0 0 -1
    outer loop
      vertex 41 24.5 0
      vertex 43.6008 23.7116 0
      vertex 41.5 22.7763 0
    endloop
  endfacet
  facet normal 0 0 -1
    outer loop
      vertex 41 26.5 0
      vertex 43.6008 23.7116 0
      vertex 41 24.5 0
    endloop
  endfacet
  facet normal 0 0 -1
    outer loop
      vertex 43.6008 23.7116 0
      vertex 41 26.5 0
      vertex 45.8502 24.1897 0
    endloop
  endfacet
  facet normal 0 0 -1
    outer loop
      vertex 48.1498 24.1897 0
      vertex 41 26.5 0
      vertex 60 26.5 0
    endloop
  endfacet
  facet normal 0 -1 0
    outer loop
      vertex 41 0 0
      vertex 60 0 1.3
      vertex 41 0 1.3
    endloop
  endfacet
  facet normal 0 -1 -0
    outer loop
      vertex 60 0 1.3
      vertex 41 0 0
      vertex 60 0 0
    endloop
  endfacet
  facet normal 0 -1 0
    outer loop
      vertex 0 0 4
      vertex 1.5 0 1.3
      vertex 1.5 0 4
    endloop
  endfacet
  facet normal 0 -1 0
    outer loop
      vertex 0 0 0
      vertex 1.5 0 1.3
      vertex 0 0 4
    endloop
  endfacet
  facet normal 0 -1 0
    outer loop
      vertex 18 0 0
      vertex 1.5 0 1.3
      vertex 0 0 0
    endloop
  endfacet
  facet normal 0 -1 0
    outer loop
      vertex 1.5 0 1.3
      vertex 18 0 0
      vertex 18 0 1.3
    endloop
  endfacet
  facet normal 1 -0 0
    outer loop
      vertex 18 0 1.3
      vertex 18 2 0
      vertex 18 2 1.3
    endloop
  endfacet
  facet normal 1 0 0
    outer loop
      vertex 18 2 0
      vertex 18 0 1.3
      vertex 18 0 0
    endloop
  endfacet
  facet normal -1 0 0
    outer loop
      vertex 41 0 0
      vertex 41 2 1.3
      vertex 41 2 0
    endloop
  endfacet
  facet normal -1 -0 0
    outer loop
      vertex 41 2 1.3
      vertex 41 0 0
      vertex 41 0 1.3
    endloop
  endfacet
  facet normal 0 -1 0
    outer loop
      vertex 18 2 0
      vertex 41 2 1.3
      vertex 18 2 1.3
    endloop
  endfacet
  facet normal 0 -1 -0
    outer loop
      vertex 41 2 1.3
      vertex 18 2 0
      vertex 41 2 0
    endloop
  endfacet
  facet normal 1 -0 0
    outer loop
      vertex 18 24.5 1.3
      vertex 18 26.5 0
      vertex 18 26.5 1.3
    endloop
  endfacet
  facet normal 1 0 0
    outer loop
      vertex 18 26.5 0
      vertex 18 24.5 1.3
      vertex 18 24.5 0
    endloop
  endfacet
  facet normal -1 0 0
    outer loop
      vertex 41 24.5 0
      vertex 41 26.5 1.3
      vertex 41 26.5 0
    endloop
  endfacet
  facet normal -1 -0 0
    outer loop
      vertex 41 26.5 1.3
      vertex 41 24.5 0
      vertex 41 24.5 1.3
    endloop
  endfacet
  facet normal 0 1 -0
    outer loop
      vertex 41 24.5 0
      vertex 18 24.5 1.3
      vertex 41 24.5 1.3
    endloop
  endfacet
  facet normal 0 1 0
    outer loop
      vertex 18 24.5 1.3
      vertex 41 24.5 0
      vertex 18 24.5 0
    endloop
  endfacet
  facet normal -0.994522 -0.104528 0
    outer loop
      vertex 58 13.25 0
      vertex 57.7596 15.537 1.3
      vertex 57.7596 15.537 0
    endloop
  endfacet
  facet normal -0.994522 -0.104528 0
    outer loop
      vertex 57.7596 15.537 1.3
      vertex 58 13.25 0
      vertex 58 13.25 1.3
    endloop
  endfacet
  facet normal 0.207912 -0.978148 0
    outer loop
      vertex 43.6008 23.7116 0
      vertex 45.8502 24.1897 1.3
      vertex 43.6008 23.7116 1.3
    endloop
  endfacet
  facet normal 0.207912 -0.978148 0
    outer loop
      vertex 45.8502 24.1897 1.3
      vertex 43.6008 23.7116 0
      vertex 45.8502 24.1897 0
    endloop
  endfacet
  facet normal -0.207912 0.978148 0
    outer loop
      vertex 50.3992 2.78838 0
      vertex 48.1498 2.31026 1.3
      vertex 50.3992 2.78838 1.3
    endloop
  endfacet
  facet normal -0.207912 0.978148 0
    outer loop
      vertex 48.1498 2.31026 1.3
      vertex 50.3992 2.78838 0
      vertex 48.1498 2.31026 0
    endloop
  endfacet
  facet normal -0.587786 -0.809017 0
    outer loop
      vertex 52.5 22.7763 0
      vertex 54.3604 21.4246 1.3
      vertex 52.5 22.7763 1.3
    endloop
  endfacet
  facet normal -0.587786 -0.809017 -0
    outer loop
      vertex 54.3604 21.4246 1.3
      vertex 52.5 22.7763 0
      vertex 54.3604 21.4246 0
    endloop
  endfacet
  facet normal 0.587785 -0.809017 0
    outer loop
      vertex 39.7434 21.5 0
      vertex 41.5 22.7763 1.3
      vertex 39.7434 21.5 1.3
    endloop
  endfacet
  facet normal 0.587785 -0.809017 0
    outer loop
      vertex 41.5 22.7763 1.3
      vertex 39.7434 21.5 0
      vertex 41.5 22.7763 0
    endloop
  endfacet
  facet normal -0.951056 0.309017 0
    outer loop
      vertex 57.049 8.7759 0
      vertex 57.7596 10.963 1.3
      vertex 57.7596 10.963 0
    endloop
  endfacet
  facet normal -0.951056 0.309017 0
    outer loop
      vertex 57.7596 10.963 1.3
      vertex 57.049 8.7759 0
      vertex 57.049 8.7759 1.3
    endloop
  endfacet
  facet normal -0.866025 -0.5 0
    outer loop
      vertex 57.049 17.7241 0
      vertex 55.8992 19.7156 1.3
      vertex 55.8992 19.7156 0
    endloop
  endfacet
  facet normal -0.866025 -0.5 0
    outer loop
      vertex 55.8992 19.7156 1.3
      vertex 57.049 17.7241 0
      vertex 57.049 17.7241 1.3
    endloop
  endfacet
  facet normal -0.951056 -0.309018 0
    outer loop
      vertex 57.7596 15.537 0
      vertex 57.049 17.7241 1.3
      vertex 57.049 17.7241 0
    endloop
  endfacet
  facet normal -0.951056 -0.309018 0
    outer loop
      vertex 57.049 17.7241 1.3
      vertex 57.7596 15.537 0
      vertex 57.7596 15.537 1.3
    endloop
  endfacet
  facet normal -0.743145 -0.66913 0
    outer loop
      vertex 55.8992 19.7156 0
      vertex 54.3604 21.4246 1.3
      vertex 54.3604 21.4246 0
    endloop
  endfacet
  facet normal -0.743145 -0.66913 0
    outer loop
      vertex 54.3604 21.4246 1.3
      vertex 55.8992 19.7156 0
      vertex 55.8992 19.7156 1.3
    endloop
  endfacet
  facet normal -0.207912 -0.978148 0
    outer loop
      vertex 48.1498 24.1897 0
      vertex 50.3992 23.7116 1.3
      vertex 48.1498 24.1897 1.3
    endloop
  endfacet
  facet normal -0.207912 -0.978148 -0
    outer loop
      vertex 50.3992 23.7116 1.3
      vertex 48.1498 24.1897 0
      vertex 50.3992 23.7116 0
    endloop
  endfacet
  facet normal 0 -1 0
    outer loop
      vertex 45.8502 24.1897 0
      vertex 48.1498 24.1897 1.3
      vertex 45.8502 24.1897 1.3
    endloop
  endfacet
  facet normal 0 -1 -0
    outer loop
      vertex 48.1498 24.1897 1.3
      vertex 45.8502 24.1897 0
      vertex 48.1498 24.1897 0
    endloop
  endfacet
  facet normal -0.406736 -0.913546 0
    outer loop
      vertex 50.3992 23.7116 0
      vertex 52.5 22.7763 1.3
      vertex 50.3992 23.7116 1.3
    endloop
  endfacet
  facet normal -0.406736 -0.913546 -0
    outer loop
      vertex 52.5 22.7763 1.3
      vertex 50.3992 23.7116 0
      vertex 52.5 22.7763 0
    endloop
  endfacet
  facet normal 0.406736 -0.913546 0
    outer loop
      vertex 41.5 22.7763 0
      vertex 43.6008 23.7116 1.3
      vertex 41.5 22.7763 1.3
    endloop
  endfacet
  facet normal 0.406736 -0.913546 0
    outer loop
      vertex 43.6008 23.7116 1.3
      vertex 41.5 22.7763 0
      vertex 43.6008 23.7116 0
    endloop
  endfacet
  facet normal -0.994522 0.104528 0
    outer loop
      vertex 57.7596 10.963 0
      vertex 58 13.25 1.3
      vertex 58 13.25 0
    endloop
  endfacet
  facet normal -0.994522 0.104528 0
    outer loop
      vertex 58 13.25 1.3
      vertex 57.7596 10.963 0
      vertex 57.7596 10.963 1.3
    endloop
  endfacet
  facet normal -0.743145 0.66913 0
    outer loop
      vertex 54.3604 5.07541 0
      vertex 55.8992 6.78436 1.3
      vertex 55.8992 6.78436 0
    endloop
  endfacet
  facet normal -0.743145 0.66913 0
    outer loop
      vertex 55.8992 6.78436 1.3
      vertex 54.3604 5.07541 0
      vertex 54.3604 5.07541 1.3
    endloop
  endfacet
  facet normal 0 1 -0
    outer loop
      vertex 48.1498 2.31026 0
      vertex 45.8502 2.31026 1.3
      vertex 48.1498 2.31026 1.3
    endloop
  endfacet
  facet normal 0 1 0
    outer loop
      vertex 45.8502 2.31026 1.3
      vertex 48.1498 2.31026 0
      vertex 45.8502 2.31026 0
    endloop
  endfacet
  facet normal 0.587785 0.809017 -0
    outer loop
      vertex 41.5 3.72372 0
      vertex 39.7434 5 1.3
      vertex 41.5 3.72372 1.3
    endloop
  endfacet
  facet normal 0.587785 0.809017 0
    outer loop
      vertex 39.7434 5 1.3
      vertex 41.5 3.72372 0
      vertex 39.7434 5 0
    endloop
  endfacet
  facet normal -0.587785 0.809017 0
    outer loop
      vertex 54.3604 5.07541 0
      vertex 52.5 3.72372 1.3
      vertex 54.3604 5.07541 1.3
    endloop
  endfacet
  facet normal -0.587785 0.809017 0
    outer loop
      vertex 52.5 3.72372 1.3
      vertex 54.3604 5.07541 0
      vertex 52.5 3.72372 0
    endloop
  endfacet
  facet normal -0.406737 0.913545 0
    outer loop
      vertex 52.5 3.72372 0
      vertex 50.3992 2.78838 1.3
      vertex 52.5 3.72372 1.3
    endloop
  endfacet
  facet normal -0.406737 0.913545 0
    outer loop
      vertex 50.3992 2.78838 1.3
      vertex 52.5 3.72372 0
      vertex 50.3992 2.78838 0
    endloop
  endfacet
  facet normal -0.866025 0.500001 0
    outer loop
      vertex 55.8992 6.78436 0
      vertex 57.049 8.7759 1.3
      vertex 57.049 8.7759 0
    endloop
  endfacet
  facet normal -0.866025 0.500001 0
    outer loop
      vertex 57.049 8.7759 1.3
      vertex 55.8992 6.78436 0
      vertex 55.8992 6.78436 1.3
    endloop
  endfacet
  facet normal 0.207912 0.978148 -0
    outer loop
      vertex 45.8502 2.31026 0
      vertex 43.6008 2.78838 1.3
      vertex 45.8502 2.31026 1.3
    endloop
  endfacet
  facet normal 0.207912 0.978148 0
    outer loop
      vertex 43.6008 2.78838 1.3
      vertex 45.8502 2.31026 0
      vertex 43.6008 2.78838 0
    endloop
  endfacet
  facet normal 0.406737 0.913545 -0
    outer loop
      vertex 43.6008 2.78838 0
      vertex 41.5 3.72372 1.3
      vertex 43.6008 2.78838 1.3
    endloop
  endfacet
  facet normal 0.406737 0.913545 0
    outer loop
      vertex 41.5 3.72372 1.3
      vertex 43.6008 2.78838 0
      vertex 41.5 3.72372 0
    endloop
  endfacet
  facet normal 1 -0 0
    outer loop
      vertex 30 5 1.3
      vertex 30 21.5 0
      vertex 30 21.5 1.3
    endloop
  endfacet
  facet normal 1 0 0
    outer loop
      vertex 30 21.5 0
      vertex 30 5 1.3
      vertex 30 5 0
    endloop
  endfacet
  facet normal 0 1 -0
    outer loop
      vertex 39.7434 5 0
      vertex 30 5 1.3
      vertex 39.7434 5 1.3
    endloop
  endfacet
  facet normal 0 1 0
    outer loop
      vertex 30 5 1.3
      vertex 39.7434 5 0
      vertex 30 5 0
    endloop
  endfacet
  facet normal 0 -1 0
    outer loop
      vertex 30 21.5 0
      vertex 39.7434 21.5 1.3
      vertex 30 21.5 1.3
    endloop
  endfacet
  facet normal 0 -1 -0
    outer loop
      vertex 39.7434 21.5 1.3
      vertex 30 21.5 0
      vertex 39.7434 21.5 0
    endloop
  endfacet
  facet normal -0 0 1
    outer loop
      vertex 0 26.5 4
      vertex 1.5 0 4
      vertex 1.5 26.5 4
    endloop
  endfacet
  facet normal 0 0 1
    outer loop
      vertex 1.5 0 4
      vertex 0 26.5 4
      vertex 0 0 4
    endloop
  endfacet
  facet normal 1 -0 0
    outer loop
      vertex 1.5 0 4
      vertex 1.5 26.5 1.3
      vertex 1.5 26.5 4
    endloop
  endfacet
  facet normal 1 0 0
    outer loop
      vertex 1.5 26.5 1.3
      vertex 1.5 0 4
      vertex 1.5 0 1.3
    endloop
  endfacet
endsolid OpenSCAD_Model
