solid OpenSCAD_Model
  facet normal -1 0 0
    outer loop
      vertex 0 21.5 0
      vertex 0 17 1
      vertex 0 21.5 9
    endloop
  endfacet
  facet normal -1 0 0
    outer loop
      vertex 0 21.5 0
      vertex 0 4.5 1
      vertex 0 17 1
    endloop
  endfacet
  facet normal -1 0 0
    outer loop
      vertex 0 0 0
      vertex 0 4.5 1
      vertex 0 21.5 0
    endloop
  endfacet
  facet normal -1 0 0
    outer loop
      vertex 0 0 9
      vertex 0 4.5 1
      vertex 0 0 0
    endloop
  endfacet
  facet normal -1 0 0
    outer loop
      vertex 0 4.5 1
      vertex 0 0 9
      vertex 0 4.5 9
    endloop
  endfacet
  facet normal -1 -0 0
    outer loop
      vertex 0 21.5 9
      vertex 0 17 1
      vertex 0 17 9
    endloop
  endfacet
  facet normal -0 0 1
    outer loop
      vertex 0 4.5 9
      vertex 4.5 0 9
      vertex 4.5 4.5 9
    endloop
  endfacet
  facet normal 0 0 1
    outer loop
      vertex 4.5 0 9
      vertex 0 4.5 9
      vertex 0 0 9
    endloop
  endfacet
  facet normal 1 0 0
    outer loop
      vertex 4.5 4.5 9
      vertex 4.5 1.5 7
      vertex 4.5 4.5 7
    endloop
  endfacet
  facet normal 1 0 0
    outer loop
      vertex 4.5 1.5 7
      vertex 4.5 0 9
      vertex 4.5 1.5 5
    endloop
  endfacet
  facet normal 1 -0 0
    outer loop
      vertex 4.5 0 9
      vertex 4.5 1.5 7
      vertex 4.5 4.5 9
    endloop
  endfacet
  facet normal 1 0 0
    outer loop
      vertex 4.5 4.5 5
      vertex 4.5 2 1
      vertex 4.5 4.5 0
    endloop
  endfacet
  facet normal 1 -0 0
    outer loop
      vertex 4.5 1.5 5
      vertex 4.5 2 1
      vertex 4.5 4.5 5
    endloop
  endfacet
  facet normal 1 0 0
    outer loop
      vertex 4.5 0 1
      vertex 4.5 1.5 5
      vertex 4.5 0 9
    endloop
  endfacet
  facet normal 1 0 0
    outer loop
      vertex 4.5 1.5 5
      vertex 4.5 0 1
      vertex 4.5 2 1
    endloop
  endfacet
  facet normal 1 0 0
    outer loop
      vertex 4.5 4.5 0
      vertex 4.5 2 1
      vertex 4.5 2 0
    endloop
  endfacet
  facet normal 0 1 0
    outer loop
      vertex 4.5 4.5 5
      vertex 2 4.5 1
      vertex 1.5 4.5 5
    endloop
  endfacet
  facet normal 0 1 -0
    outer loop
      vertex 4.5 4.5 0
      vertex 2 4.5 1
      vertex 4.5 4.5 5
    endloop
  endfacet
  facet normal 0 1 0
    outer loop
      vertex 2 4.5 1
      vertex 4.5 4.5 0
      vertex 2 4.5 0
    endloop
  endfacet
  facet normal 0 1 0
    outer loop
      vertex 1.5 4.5 7
      vertex 4.5 4.5 9
      vertex 4.5 4.5 7
    endloop
  endfacet
  facet normal 0 1 0
    outer loop
      vertex 4.5 4.5 9
      vertex 1.5 4.5 7
      vertex 0 4.5 9
    endloop
  endfacet
  facet normal 0 1 -0
    outer loop
      vertex 1.5 4.5 5
      vertex 0 4.5 9
      vertex 1.5 4.5 7
    endloop
  endfacet
  facet normal 0 1 0
    outer loop
      vertex 0 4.5 1
      vertex 1.5 4.5 5
      vertex 2 4.5 1
    endloop
  endfacet
  facet normal 0 1 0
    outer loop
      vertex 1.5 4.5 5
      vertex 0 4.5 1
      vertex 0 4.5 9
    endloop
  endfacet
  facet normal 0 0 -1
    outer loop
      vertex 4.5 17 0
      vertex 2 17 0
      vertex 4.5 19 0
    endloop
  endfacet
  facet normal 0 0 -1
    outer loop
      vertex 56.5 0 0
      vertex 54 4.5 0
      vertex 56.5 21.5 0
    endloop
  endfacet
  facet normal 0 0 -1
    outer loop
      vertex 56.5 0 0
      vertex 52 2 0
      vertex 54 4.5 0
    endloop
  endfacet
  facet normal 0 0 -1
    outer loop
      vertex 56.5 0 0
      vertex 4.5 2 0
      vertex 52 2 0
    endloop
  endfacet
  facet normal 0 0 -1
    outer loop
      vertex 4.5 2 0
      vertex 2 4.5 0
      vertex 4.5 4.5 0
    endloop
  endfacet
  facet normal -0 0 -1
    outer loop
      vertex 2 4.5 0
      vertex 0 0 0
      vertex 2 17 0
    endloop
  endfacet
  facet normal -0 0 -1
    outer loop
      vertex 4.5 2 0
      vertex 0 0 0
      vertex 2 4.5 0
    endloop
  endfacet
  facet normal 0 0 -1
    outer loop
      vertex 0 0 0
      vertex 4.5 2 0
      vertex 56.5 0 0
    endloop
  endfacet
  facet normal 0 0 -1
    outer loop
      vertex 54 17 0
      vertex 56.5 21.5 0
      vertex 54 4.5 0
    endloop
  endfacet
  facet normal 0 0 -1
    outer loop
      vertex 52 19 0
      vertex 54 17 0
      vertex 52 17 0
    endloop
  endfacet
  facet normal 0 0 -1
    outer loop
      vertex 54 17 0
      vertex 52 19 0
      vertex 56.5 21.5 0
    endloop
  endfacet
  facet normal 0 0 -1
    outer loop
      vertex 4.5 19 0
      vertex 56.5 21.5 0
      vertex 52 19 0
    endloop
  endfacet
  facet normal 0 0 -1
    outer loop
      vertex 4.5 19 0
      vertex 0 21.5 0
      vertex 56.5 21.5 0
    endloop
  endfacet
  facet normal 0 0 -1
    outer loop
      vertex 2 17 0
      vertex 0 21.5 0
      vertex 4.5 19 0
    endloop
  endfacet
  facet normal 0 0 -1
    outer loop
      vertex 0 21.5 0
      vertex 2 17 0
      vertex 0 0 0
    endloop
  endfacet
  facet normal -0 0 -1
    outer loop
      vertex 54 4.5 0
      vertex 52 2 0
      vertex 52 4.5 0
    endloop
  endfacet
  facet normal 0 -1 0
    outer loop
      vertex 0 0 9
      vertex 4.5 0 1
      vertex 4.5 0 9
    endloop
  endfacet
  facet normal 0 -1 -0
    outer loop
      vertex 4.5 0 1
      vertex 0 0 0
      vertex 52 0 1
    endloop
  endfacet
  facet normal 0 -1 0
    outer loop
      vertex 0 0 0
      vertex 4.5 0 1
      vertex 0 0 9
    endloop
  endfacet
  facet normal 0 -1 0
    outer loop
      vertex 52 0 1
      vertex 56.5 0 9
      vertex 52 0 9
    endloop
  endfacet
  facet normal 0 -1 0
    outer loop
      vertex 52 0 1
      vertex 56.5 0 0
      vertex 56.5 0 9
    endloop
  endfacet
  facet normal 0 -1 0
    outer loop
      vertex 56.5 0 0
      vertex 52 0 1
      vertex 0 0 0
    endloop
  endfacet
  facet normal 1 -0 0
    outer loop
      vertex 1.5 1.5 7
      vertex 1.5 4.5 5
      vertex 1.5 4.5 7
    endloop
  endfacet
  facet normal 1 0 0
    outer loop
      vertex 1.5 4.5 5
      vertex 1.5 1.5 7
      vertex 1.5 1.5 5
    endloop
  endfacet
  facet normal 0 0 -1
    outer loop
      vertex 1.5 1.5 7
      vertex 4.5 4.5 7
      vertex 4.5 1.5 7
    endloop
  endfacet
  facet normal -0 0 -1
    outer loop
      vertex 4.5 4.5 7
      vertex 1.5 1.5 7
      vertex 1.5 4.5 7
    endloop
  endfacet
  facet normal -0 0 1
    outer loop
      vertex 1.5 4.5 5
      vertex 4.5 1.5 5
      vertex 4.5 4.5 5
    endloop
  endfacet
  facet normal 0 0 1
    outer loop
      vertex 4.5 1.5 5
      vertex 1.5 4.5 5
      vertex 1.5 1.5 5
    endloop
  endfacet
  facet normal 0 1 -0
    outer loop
      vertex 4.5 1.5 5
      vertex 1.5 1.5 7
      vertex 4.5 1.5 7
    endloop
  endfacet
  facet normal 0 1 0
    outer loop
      vertex 1.5 1.5 7
      vertex 4.5 1.5 5
      vertex 1.5 1.5 5
    endloop
  endfacet
  facet normal -0 0 1
    outer loop
      vertex 0 17 1
      vertex 2 4.5 1
      vertex 2 17 1
    endloop
  endfacet
  facet normal 0 0 1
    outer loop
      vertex 2 4.5 1
      vertex 0 17 1
      vertex 0 4.5 1
    endloop
  endfacet
  facet normal -0 0 1
    outer loop
      vertex 4.5 2 1
      vertex 52 0 1
      vertex 52 2 1
    endloop
  endfacet
  facet normal 0 0 1
    outer loop
      vertex 52 0 1
      vertex 4.5 2 1
      vertex 4.5 0 1
    endloop
  endfacet
  facet normal -0 0 1
    outer loop
      vertex 4.5 21.5 1
      vertex 52 19 1
      vertex 52 21.5 1
    endloop
  endfacet
  facet normal 0 0 1
    outer loop
      vertex 52 19 1
      vertex 4.5 21.5 1
      vertex 4.5 19 1
    endloop
  endfacet
  facet normal -0 0 1
    outer loop
      vertex 54 17 1
      vertex 56.5 4.5 1
      vertex 56.5 17 1
    endloop
  endfacet
  facet normal 0 0 1
    outer loop
      vertex 56.5 4.5 1
      vertex 54 17 1
      vertex 54 4.5 1
    endloop
  endfacet
  facet normal 1 0 0
    outer loop
      vertex 56.5 4.5 9
      vertex 56.5 0 9
      vertex 56.5 4.5 1
    endloop
  endfacet
  facet normal 1 0 0
    outer loop
      vertex 56.5 17 1
      vertex 56.5 21.5 9
      vertex 56.5 17 9
    endloop
  endfacet
  facet normal 1 0 0
    outer loop
      vertex 56.5 21.5 9
      vertex 56.5 17 1
      vertex 56.5 21.5 0
    endloop
  endfacet
  facet normal 1 -0 0
    outer loop
      vertex 56.5 4.5 1
      vertex 56.5 21.5 0
      vertex 56.5 17 1
    endloop
  endfacet
  facet normal 1 0 0
    outer loop
      vertex 56.5 4.5 1
      vertex 56.5 0 0
      vertex 56.5 21.5 0
    endloop
  endfacet
  facet normal 1 0 0
    outer loop
      vertex 56.5 0 0
      vertex 56.5 4.5 1
      vertex 56.5 0 9
    endloop
  endfacet
  facet normal 0 1 0
    outer loop
      vertex 56.5 21.5 9
      vertex 52 21.5 1
      vertex 52 21.5 9
    endloop
  endfacet
  facet normal 0 1 0
    outer loop
      vertex 52 21.5 1
      vertex 56.5 21.5 0
      vertex 4.5 21.5 1
    endloop
  endfacet
  facet normal 0 1 -0
    outer loop
      vertex 56.5 21.5 0
      vertex 52 21.5 1
      vertex 56.5 21.5 9
    endloop
  endfacet
  facet normal 0 1 -0
    outer loop
      vertex 4.5 21.5 1
      vertex 0 21.5 9
      vertex 4.5 21.5 9
    endloop
  endfacet
  facet normal 0 1 0
    outer loop
      vertex 4.5 21.5 1
      vertex 0 21.5 0
      vertex 0 21.5 9
    endloop
  endfacet
  facet normal 0 1 0
    outer loop
      vertex 0 21.5 0
      vertex 4.5 21.5 1
      vertex 56.5 21.5 0
    endloop
  endfacet
  facet normal 1 -0 0
    outer loop
      vertex 2 4.5 1
      vertex 2 17 0
      vertex 2 17 1
    endloop
  endfacet
  facet normal 1 0 0
    outer loop
      vertex 2 17 0
      vertex 2 4.5 1
      vertex 2 4.5 0
    endloop
  endfacet
  facet normal -1 0 0
    outer loop
      vertex 54 4.5 0
      vertex 54 17 1
      vertex 54 17 0
    endloop
  endfacet
  facet normal -1 -0 0
    outer loop
      vertex 54 17 1
      vertex 54 4.5 0
      vertex 54 4.5 1
    endloop
  endfacet
  facet normal 0 -1 0
    outer loop
      vertex 4.5 19 0
      vertex 52 19 1
      vertex 4.5 19 1
    endloop
  endfacet
  facet normal 0 -1 -0
    outer loop
      vertex 52 19 1
      vertex 4.5 19 0
      vertex 52 19 0
    endloop
  endfacet
  facet normal 0 1 -0
    outer loop
      vertex 52 2 0
      vertex 4.5 2 1
      vertex 52 2 1
    endloop
  endfacet
  facet normal 0 1 0
    outer loop
      vertex 4.5 2 1
      vertex 52 2 0
      vertex 4.5 2 0
    endloop
  endfacet
  facet normal -1 0 0
    outer loop
      vertex 52 2 1
      vertex 52 4.5 0
      vertex 52 2 0
    endloop
  endfacet
  facet normal -1 0 0
    outer loop
      vertex 52 4.5 0
      vertex 52 2 1
      vertex 52 4.5 5
    endloop
  endfacet
  facet normal -1 0 0
    outer loop
      vertex 52 2 1
      vertex 52 1.5 5
      vertex 52 4.5 5
    endloop
  endfacet
  facet normal -1 0 0
    outer loop
      vertex 52 0 9
      vertex 52 1.5 5
      vertex 52 0 1
    endloop
  endfacet
  facet normal -1 0 0
    outer loop
      vertex 52 0 1
      vertex 52 1.5 5
      vertex 52 2 1
    endloop
  endfacet
  facet normal -1 0 0
    outer loop
      vertex 52 1.5 7
      vertex 52 4.5 9
      vertex 52 4.5 7
    endloop
  endfacet
  facet normal -1 0 0
    outer loop
      vertex 52 1.5 7
      vertex 52 0 9
      vertex 52 4.5 9
    endloop
  endfacet
  facet normal -1 0 0
    outer loop
      vertex 52 1.5 5
      vertex 52 0 9
      vertex 52 1.5 7
    endloop
  endfacet
  facet normal -0 0 1
    outer loop
      vertex 52 4.5 9
      vertex 56.5 0 9
      vertex 56.5 4.5 9
    endloop
  endfacet
  facet normal 0 0 1
    outer loop
      vertex 56.5 0 9
      vertex 52 4.5 9
      vertex 52 0 9
    endloop
  endfacet
  facet normal 0 1 0
    outer loop
      vertex 56.5 4.5 9
      vertex 55 4.5 7
      vertex 52 4.5 9
    endloop
  endfacet
  facet normal 0 1 0
    outer loop
      vertex 56.5 4.5 9
      vertex 55 4.5 5
      vertex 55 4.5 7
    endloop
  endfacet
  facet normal 0 1 -0
    outer loop
      vertex 56.5 4.5 1
      vertex 55 4.5 5
      vertex 56.5 4.5 9
    endloop
  endfacet
  facet normal 0 1 0
    outer loop
      vertex 54 4.5 1
      vertex 55 4.5 5
      vertex 56.5 4.5 1
    endloop
  endfacet
  facet normal 0 1 0
    outer loop
      vertex 55 4.5 5
      vertex 54 4.5 1
      vertex 52 4.5 5
    endloop
  endfacet
  facet normal 0 1 0
    outer loop
      vertex 52 4.5 0
      vertex 54 4.5 1
      vertex 54 4.5 0
    endloop
  endfacet
  facet normal 0 1 0
    outer loop
      vertex 54 4.5 1
      vertex 52 4.5 0
      vertex 52 4.5 5
    endloop
  endfacet
  facet normal 0 1 0
    outer loop
      vertex 52 4.5 9
      vertex 55 4.5 7
      vertex 52 4.5 7
    endloop
  endfacet
  facet normal 0 0 -1
    outer loop
      vertex 52 1.5 7
      vertex 55 4.5 7
      vertex 55 1.5 7
    endloop
  endfacet
  facet normal -0 0 -1
    outer loop
      vertex 55 4.5 7
      vertex 52 1.5 7
      vertex 52 4.5 7
    endloop
  endfacet
  facet normal -1 0 0
    outer loop
      vertex 55 1.5 5
      vertex 55 4.5 7
      vertex 55 4.5 5
    endloop
  endfacet
  facet normal -1 -0 0
    outer loop
      vertex 55 4.5 7
      vertex 55 1.5 5
      vertex 55 1.5 7
    endloop
  endfacet
  facet normal -0 0 1
    outer loop
      vertex 52 4.5 5
      vertex 55 1.5 5
      vertex 55 4.5 5
    endloop
  endfacet
  facet normal 0 0 1
    outer loop
      vertex 55 1.5 5
      vertex 52 4.5 5
      vertex 52 1.5 5
    endloop
  endfacet
  facet normal 0 1 -0
    outer loop
      vertex 55 1.5 5
      vertex 52 1.5 7
      vertex 55 1.5 7
    endloop
  endfacet
  facet normal 0 1 0
    outer loop
      vertex 52 1.5 7
      vertex 55 1.5 5
      vertex 52 1.5 5
    endloop
  endfacet
  facet normal -0 0 1
    outer loop
      vertex 0 21.5 9
      vertex 4.5 17 9
      vertex 4.5 21.5 9
    endloop
  endfacet
  facet normal 0 0 1
    outer loop
      vertex 4.5 17 9
      vertex 0 21.5 9
      vertex 0 17 9
    endloop
  endfacet
  facet normal 1 0 0
    outer loop
      vertex 4.5 20 5
      vertex 4.5 21.5 9
      vertex 4.5 20 7
    endloop
  endfacet
  facet normal 1 -0 0
    outer loop
      vertex 4.5 17 9
      vertex 4.5 20 7
      vertex 4.5 21.5 9
    endloop
  endfacet
  facet normal 1 0 0
    outer loop
      vertex 4.5 20 7
      vertex 4.5 17 9
      vertex 4.5 17 7
    endloop
  endfacet
  facet normal 1 0 0
    outer loop
      vertex 4.5 21.5 9
      vertex 4.5 20 5
      vertex 4.5 21.5 1
    endloop
  endfacet
  facet normal 1 0 0
    outer loop
      vertex 4.5 20 5
      vertex 4.5 19 1
      vertex 4.5 21.5 1
    endloop
  endfacet
  facet normal 1 -0 0
    outer loop
      vertex 4.5 17 5
      vertex 4.5 19 1
      vertex 4.5 20 5
    endloop
  endfacet
  facet normal 1 0 0
    outer loop
      vertex 4.5 17 0
      vertex 4.5 19 1
      vertex 4.5 17 5
    endloop
  endfacet
  facet normal 1 0 0
    outer loop
      vertex 4.5 19 1
      vertex 4.5 17 0
      vertex 4.5 19 0
    endloop
  endfacet
  facet normal 0 -1 0
    outer loop
      vertex 0 17 9
      vertex 1.5 17 7
      vertex 4.5 17 9
    endloop
  endfacet
  facet normal 0 -1 0
    outer loop
      vertex 0 17 9
      vertex 1.5 17 5
      vertex 1.5 17 7
    endloop
  endfacet
  facet normal 0 -1 0
    outer loop
      vertex 0 17 1
      vertex 1.5 17 5
      vertex 0 17 9
    endloop
  endfacet
  facet normal 0 -1 0
    outer loop
      vertex 2 17 1
      vertex 1.5 17 5
      vertex 0 17 1
    endloop
  endfacet
  facet normal 0 -1 0
    outer loop
      vertex 1.5 17 5
      vertex 2 17 1
      vertex 4.5 17 5
    endloop
  endfacet
  facet normal 0 -1 0
    outer loop
      vertex 4.5 17 0
      vertex 2 17 1
      vertex 2 17 0
    endloop
  endfacet
  facet normal 0 -1 0
    outer loop
      vertex 2 17 1
      vertex 4.5 17 0
      vertex 4.5 17 5
    endloop
  endfacet
  facet normal 0 -1 -0
    outer loop
      vertex 4.5 17 9
      vertex 1.5 17 7
      vertex 4.5 17 7
    endloop
  endfacet
  facet normal 1 -0 0
    outer loop
      vertex 1.5 17 7
      vertex 1.5 20 5
      vertex 1.5 20 7
    endloop
  endfacet
  facet normal 1 0 0
    outer loop
      vertex 1.5 20 5
      vertex 1.5 17 7
      vertex 1.5 17 5
    endloop
  endfacet
  facet normal 0 0 -1
    outer loop
      vertex 1.5 17 7
      vertex 4.5 20 7
      vertex 4.5 17 7
    endloop
  endfacet
  facet normal -0 0 -1
    outer loop
      vertex 4.5 20 7
      vertex 1.5 17 7
      vertex 1.5 20 7
    endloop
  endfacet
  facet normal -0 0 1
    outer loop
      vertex 1.5 20 5
      vertex 4.5 17 5
      vertex 4.5 20 5
    endloop
  endfacet
  facet normal 0 0 1
    outer loop
      vertex 4.5 17 5
      vertex 1.5 20 5
      vertex 1.5 17 5
    endloop
  endfacet
  facet normal 0 -1 0
    outer loop
      vertex 1.5 20 5
      vertex 4.5 20 7
      vertex 1.5 20 7
    endloop
  endfacet
  facet normal 0 -1 -0
    outer loop
      vertex 4.5 20 7
      vertex 1.5 20 5
      vertex 4.5 20 5
    endloop
  endfacet
  facet normal -1 0 0
    outer loop
      vertex 52 19 0
      vertex 52 17 0
      vertex 52 19 1
    endloop
  endfacet
  facet normal -1 0 0
    outer loop
      vertex 52 21.5 1
      vertex 52 20 5
      vertex 52 21.5 9
    endloop
  endfacet
  facet normal -1 0 0
    outer loop
      vertex 52 19 1
      vertex 52 20 5
      vertex 52 21.5 1
    endloop
  endfacet
  facet normal -1 0 0
    outer loop
      vertex 52 17 5
      vertex 52 19 1
      vertex 52 17 0
    endloop
  endfacet
  facet normal -1 0 0
    outer loop
      vertex 52 19 1
      vertex 52 17 5
      vertex 52 20 5
    endloop
  endfacet
  facet normal -1 0 0
    outer loop
      vertex 52 20 7
      vertex 52 21.5 9
      vertex 52 20 5
    endloop
  endfacet
  facet normal -1 0 0
    outer loop
      vertex 52 17 9
      vertex 52 20 7
      vertex 52 17 7
    endloop
  endfacet
  facet normal -1 0 0
    outer loop
      vertex 52 20 7
      vertex 52 17 9
      vertex 52 21.5 9
    endloop
  endfacet
  facet normal -0 0 1
    outer loop
      vertex 52 21.5 9
      vertex 56.5 17 9
      vertex 56.5 21.5 9
    endloop
  endfacet
  facet normal 0 0 1
    outer loop
      vertex 56.5 17 9
      vertex 52 21.5 9
      vertex 52 17 9
    endloop
  endfacet
  facet normal 0 -1 0
    outer loop
      vertex 52 17 5
      vertex 54 17 1
      vertex 55 17 5
    endloop
  endfacet
  facet normal 0 -1 0
    outer loop
      vertex 52 17 0
      vertex 54 17 1
      vertex 52 17 5
    endloop
  endfacet
  facet normal 0 -1 -0
    outer loop
      vertex 54 17 1
      vertex 52 17 0
      vertex 54 17 0
    endloop
  endfacet
  facet normal 0 -1 0
    outer loop
      vertex 55 17 7
      vertex 52 17 9
      vertex 52 17 7
    endloop
  endfacet
  facet normal 0 -1 0
    outer loop
      vertex 52 17 9
      vertex 55 17 7
      vertex 56.5 17 9
    endloop
  endfacet
  facet normal 0 -1 0
    outer loop
      vertex 55 17 5
      vertex 56.5 17 9
      vertex 55 17 7
    endloop
  endfacet
  facet normal 0 -1 0
    outer loop
      vertex 56.5 17 1
      vertex 55 17 5
      vertex 54 17 1
    endloop
  endfacet
  facet normal 0 -1 0
    outer loop
      vertex 55 17 5
      vertex 56.5 17 1
      vertex 56.5 17 9
    endloop
  endfacet
  facet normal 0 0 -1
    outer loop
      vertex 52 17 7
      vertex 55 20 7
      vertex 55 17 7
    endloop
  endfacet
  facet normal -0 0 -1
    outer loop
      vertex 55 20 7
      vertex 52 17 7
      vertex 52 20 7
    endloop
  endfacet
  facet normal -1 0 0
    outer loop
      vertex 55 17 5
      vertex 55 20 7
      vertex 55 20 5
    endloop
  endfacet
  facet normal -1 -0 0
    outer loop
      vertex 55 20 7
      vertex 55 17 5
      vertex 55 17 7
    endloop
  endfacet
  facet normal -0 0 1
    outer loop
      vertex 52 20 5
      vertex 55 17 5
      vertex 55 20 5
    endloop
  endfacet
  facet normal 0 0 1
    outer loop
      vertex 55 17 5
      vertex 52 20 5
      vertex 52 17 5
    endloop
  endfacet
  facet normal 0 -1 0
    outer loop
      vertex 52 20 5
      vertex 55 20 7
      vertex 52 20 7
    endloop
  endfacet
  facet normal 0 -1 -0
    outer loop
      vertex 55 20 7
      vertex 52 20 5
      vertex 55 20 5
    endloop
  endfacet
endsolid OpenSCAD_Model
