solid OpenSCAD_Model
  facet normal -1 0 0
    outer loop
      vertex 0 0 0
      vertex 0 16.5 1.5
      vertex 0 16.5 0
    endloop
  endfacet
  facet normal -1 -0 0
    outer loop
      vertex 0 16.5 1.5
      vertex 0 0 0
      vertex 0 0 1.5
    endloop
  endfacet
  facet normal -0 0 1
    outer loop
      vertex 21.25 5 1.5
      vertex 30 3.1 1.5
      vertex 35 5 1.5
    endloop
  endfacet
  facet normal -0 0 1
    outer loop
      vertex 21 5.75 1.5
      vertex 21.25 5 1.5
      vertex 21 10.75 1.5
    endloop
  endfacet
  facet normal -0 0 1
    outer loop
      vertex 19 5.75 1.5
      vertex 21.25 5 1.5
      vertex 21 5.75 1.5
    endloop
  endfacet
  facet normal 0 0 1
    outer loop
      vertex 18.75 5 1.5
      vertex 19 5.75 1.5
      vertex 18.75 11.5 1.5
    endloop
  endfacet
  facet normal 0 0 1
    outer loop
      vertex 18.75 5 1.5
      vertex 21.25 5 1.5
      vertex 19 5.75 1.5
    endloop
  endfacet
  facet normal -0 0 1
    outer loop
      vertex 18.75 5 1.5
      vertex 30 3.1 1.5
      vertex 21.25 5 1.5
    endloop
  endfacet
  facet normal 0 0 1
    outer loop
      vertex 18.75 5 1.5
      vertex 10 3.1 1.5
      vertex 30 3.1 1.5
    endloop
  endfacet
  facet normal 0 0 1
    outer loop
      vertex 10 3.1 1.5
      vertex 5 5 1.5
      vertex 10 1.25 1.5
    endloop
  endfacet
  facet normal -0 0 1
    outer loop
      vertex 5 5 1.5
      vertex 10 3.1 1.5
      vertex 18.75 5 1.5
    endloop
  endfacet
  facet normal 0 0 1
    outer loop
      vertex 40 16.5 1.5
      vertex 35 11.5 1.5
      vertex 40 0 1.5
    endloop
  endfacet
  facet normal 0 0 1
    outer loop
      vertex 40 16.5 1.5
      vertex 21.25 11.5 1.5
      vertex 35 11.5 1.5
    endloop
  endfacet
  facet normal 0 0 1
    outer loop
      vertex 21.25 11.5 1.5
      vertex 21 10.75 1.5
      vertex 21.25 5 1.5
    endloop
  endfacet
  facet normal 0 0 1
    outer loop
      vertex 21.25 11.5 1.5
      vertex 19 10.75 1.5
      vertex 21 10.75 1.5
    endloop
  endfacet
  facet normal 0 0 1
    outer loop
      vertex 19 10.75 1.5
      vertex 18.75 11.5 1.5
      vertex 19 5.75 1.5
    endloop
  endfacet
  facet normal 0 0 1
    outer loop
      vertex 21.25 11.5 1.5
      vertex 18.75 11.5 1.5
      vertex 19 10.75 1.5
    endloop
  endfacet
  facet normal 0 0 1
    outer loop
      vertex 40 16.5 1.5
      vertex 18.75 11.5 1.5
      vertex 21.25 11.5 1.5
    endloop
  endfacet
  facet normal -0 0 1
    outer loop
      vertex 0 16.5 1.5
      vertex 18.75 11.5 1.5
      vertex 40 16.5 1.5
    endloop
  endfacet
  facet normal 0 0 1
    outer loop
      vertex 5 11.5 1.5
      vertex 0 16.5 1.5
      vertex 5 5 1.5
    endloop
  endfacet
  facet normal 0 0 1
    outer loop
      vertex 18.75 11.5 1.5
      vertex 0 16.5 1.5
      vertex 5 11.5 1.5
    endloop
  endfacet
  facet normal -0 0 1
    outer loop
      vertex 35 5 1.5
      vertex 40 0 1.5
      vertex 35 11.5 1.5
    endloop
  endfacet
  facet normal 0 0 1
    outer loop
      vertex 30 1.25 1.5
      vertex 35 5 1.5
      vertex 30 3.1 1.5
    endloop
  endfacet
  facet normal 0 0 1
    outer loop
      vertex 35 5 1.5
      vertex 30 1.25 1.5
      vertex 40 0 1.5
    endloop
  endfacet
  facet normal -0 0 1
    outer loop
      vertex 10 1.25 1.5
      vertex 40 0 1.5
      vertex 30 1.25 1.5
    endloop
  endfacet
  facet normal 0 0 1
    outer loop
      vertex 10 1.25 1.5
      vertex 0 0 1.5
      vertex 40 0 1.5
    endloop
  endfacet
  facet normal 0 0 1
    outer loop
      vertex 5 5 1.5
      vertex 0 0 1.5
      vertex 10 1.25 1.5
    endloop
  endfacet
  facet normal 0 0 1
    outer loop
      vertex 0 0 1.5
      vertex 5 5 1.5
      vertex 0 16.5 1.5
    endloop
  endfacet
  facet normal 1 -0 0
    outer loop
      vertex 40 0 1.5
      vertex 40 16.5 0
      vertex 40 16.5 1.5
    endloop
  endfacet
  facet normal 1 0 0
    outer loop
      vertex 40 16.5 0
      vertex 40 0 1.5
      vertex 40 0 0
    endloop
  endfacet
  facet normal 0 1 -0
    outer loop
      vertex 40 16.5 0
      vertex 0 16.5 1.5
      vertex 40 16.5 1.5
    endloop
  endfacet
  facet normal 0 1 0
    outer loop
      vertex 0 16.5 1.5
      vertex 40 16.5 0
      vertex 0 16.5 0
    endloop
  endfacet
  facet normal 0 0 -1
    outer loop
      vertex 40 0 0
      vertex 35 5 0
      vertex 40 16.5 0
    endloop
  endfacet
  facet normal 0 0 -1
    outer loop
      vertex 40 0 0
      vertex 21.25 5 0
      vertex 35 5 0
    endloop
  endfacet
  facet normal 0 0 -1
    outer loop
      vertex 21.25 5 0
      vertex 18.75 5 0
      vertex 21.25 11.5 0
    endloop
  endfacet
  facet normal 0 0 -1
    outer loop
      vertex 40 0 0
      vertex 18.75 5 0
      vertex 21.25 5 0
    endloop
  endfacet
  facet normal 0 0 -1
    outer loop
      vertex 0 0 0
      vertex 18.75 5 0
      vertex 40 0 0
    endloop
  endfacet
  facet normal -0 0 -1
    outer loop
      vertex 5 5 0
      vertex 0 0 0
      vertex 5 11.5 0
    endloop
  endfacet
  facet normal -0 0 -1
    outer loop
      vertex 18.75 5 0
      vertex 0 0 0
      vertex 5 5 0
    endloop
  endfacet
  facet normal 0 0 -1
    outer loop
      vertex 35 11.5 0
      vertex 40 16.5 0
      vertex 35 5 0
    endloop
  endfacet
  facet normal 0 0 -1
    outer loop
      vertex 21.25 11.5 0
      vertex 40 16.5 0
      vertex 35 11.5 0
    endloop
  endfacet
  facet normal 0 0 -1
    outer loop
      vertex 18.75 11.5 0
      vertex 21.25 11.5 0
      vertex 18.75 5 0
    endloop
  endfacet
  facet normal 0 0 -1
    outer loop
      vertex 18.75 11.5 0
      vertex 40 16.5 0
      vertex 21.25 11.5 0
    endloop
  endfacet
  facet normal 0 0 -1
    outer loop
      vertex 0 16.5 0
      vertex 18.75 11.5 0
      vertex 5 11.5 0
    endloop
  endfacet
  facet normal 0 0 -1
    outer loop
      vertex 18.75 11.5 0
      vertex 0 16.5 0
      vertex 40 16.5 0
    endloop
  endfacet
  facet normal 0 0 -1
    outer loop
      vertex 0 16.5 0
      vertex 5 11.5 0
      vertex 0 0 0
    endloop
  endfacet
  facet normal 0 -1 0
    outer loop
      vertex 0 0 0
      vertex 40 0 1.5
      vertex 0 0 1.5
    endloop
  endfacet
  facet normal 0 -1 -0
    outer loop
      vertex 40 0 1.5
      vertex 0 0 0
      vertex 40 0 0
    endloop
  endfacet
  facet normal 1 -0 0
    outer loop
      vertex 5 5 1.5
      vertex 5 11.5 0
      vertex 5 11.5 1.5
    endloop
  endfacet
  facet normal 1 0 0
    outer loop
      vertex 5 11.5 0
      vertex 5 5 1.5
      vertex 5 5 0
    endloop
  endfacet
  facet normal -1 0 0
    outer loop
      vertex 35 5 0
      vertex 35 11.5 1.5
      vertex 35 11.5 0
    endloop
  endfacet
  facet normal -1 -0 0
    outer loop
      vertex 35 11.5 1.5
      vertex 35 5 0
      vertex 35 5 1.5
    endloop
  endfacet
  facet normal 0 1 -0
    outer loop
      vertex 18.75 5 0
      vertex 5 5 1.5
      vertex 18.75 5 1.5
    endloop
  endfacet
  facet normal 0 1 0
    outer loop
      vertex 5 5 1.5
      vertex 18.75 5 0
      vertex 5 5 0
    endloop
  endfacet
  facet normal 0 1 -0
    outer loop
      vertex 35 5 0
      vertex 21.25 5 1.5
      vertex 35 5 1.5
    endloop
  endfacet
  facet normal 0 1 0
    outer loop
      vertex 21.25 5 1.5
      vertex 35 5 0
      vertex 21.25 5 0
    endloop
  endfacet
  facet normal 0 -1 0
    outer loop
      vertex 21.25 11.5 0
      vertex 35 11.5 1.5
      vertex 21.25 11.5 1.5
    endloop
  endfacet
  facet normal 0 -1 -0
    outer loop
      vertex 35 11.5 1.5
      vertex 21.25 11.5 0
      vertex 35 11.5 0
    endloop
  endfacet
  facet normal 0 -1 0
    outer loop
      vertex 5 11.5 0
      vertex 18.75 11.5 1.5
      vertex 5 11.5 1.5
    endloop
  endfacet
  facet normal 0 -1 -0
    outer loop
      vertex 18.75 11.5 1.5
      vertex 5 11.5 0
      vertex 18.75 11.5 0
    endloop
  endfacet
  facet normal -1 0 0
    outer loop
      vertex 10 1.25 1.5
      vertex 10 3.1 10
      vertex 10 3.1 1.5
    endloop
  endfacet
  facet normal -1 -0 0
    outer loop
      vertex 10 3.1 10
      vertex 10 1.25 1.5
      vertex 10 1.25 10
    endloop
  endfacet
  facet normal -0 0 1
    outer loop
      vertex 10 3.1 10
      vertex 30 1.25 10
      vertex 30 3.1 10
    endloop
  endfacet
  facet normal 0 0 1
    outer loop
      vertex 30 1.25 10
      vertex 10 3.1 10
      vertex 10 1.25 10
    endloop
  endfacet
  facet normal 1 -0 0
    outer loop
      vertex 30 1.25 10
      vertex 30 3.1 1.5
      vertex 30 3.1 10
    endloop
  endfacet
  facet normal 1 0 0
    outer loop
      vertex 30 3.1 1.5
      vertex 30 1.25 10
      vertex 30 1.25 1.5
    endloop
  endfacet
  facet normal 0 -1 0
    outer loop
      vertex 10 1.25 1.5
      vertex 30 1.25 10
      vertex 10 1.25 10
    endloop
  endfacet
  facet normal 0 -1 -0
    outer loop
      vertex 30 1.25 10
      vertex 10 1.25 1.5
      vertex 30 1.25 1.5
    endloop
  endfacet
  facet normal 0 1 -0
    outer loop
      vertex 30 3.1 1.5
      vertex 10 3.1 10
      vertex 30 3.1 10
    endloop
  endfacet
  facet normal 0 1 0
    outer loop
      vertex 10 3.1 10
      vertex 30 3.1 1.5
      vertex 10 3.1 1.5
    endloop
  endfacet
  facet normal -1 0 0
    outer loop
      vertex 18.75 5 0
      vertex 18.75 11.5 1.5
      vertex 18.75 11.5 0
    endloop
  endfacet
  facet normal -1 -0 0
    outer loop
      vertex 18.75 11.5 1.5
      vertex 18.75 5 0
      vertex 18.75 5 1.5
    endloop
  endfacet
  facet normal 1 -0 0
    outer loop
      vertex 21.25 5 1.5
      vertex 21.25 11.5 0
      vertex 21.25 11.5 1.5
    endloop
  endfacet
  facet normal 1 0 0
    outer loop
      vertex 21.25 11.5 0
      vertex 21.25 5 1.5
      vertex 21.25 5 0
    endloop
  endfacet
  facet normal -1 0 0
    outer loop
      vertex 19 5.75 1.5
      vertex 19 10.75 6
      vertex 19 10.75 1.5
    endloop
  endfacet
  facet normal -1 -0 0
    outer loop
      vertex 19 10.75 6
      vertex 19 5.75 1.5
      vertex 19 5.75 6
    endloop
  endfacet
  facet normal -0 0 1
    outer loop
      vertex 19 10.75 6
      vertex 21 5.75 6
      vertex 21 10.75 6
    endloop
  endfacet
  facet normal 0 0 1
    outer loop
      vertex 21 5.75 6
      vertex 19 10.75 6
      vertex 19 5.75 6
    endloop
  endfacet
  facet normal 1 -0 0
    outer loop
      vertex 21 5.75 6
      vertex 21 10.75 1.5
      vertex 21 10.75 6
    endloop
  endfacet
  facet normal 1 0 0
    outer loop
      vertex 21 10.75 1.5
      vertex 21 5.75 6
      vertex 21 5.75 1.5
    endloop
  endfacet
  facet normal 0 1 -0
    outer loop
      vertex 21 10.75 1.5
      vertex 19 10.75 6
      vertex 21 10.75 6
    endloop
  endfacet
  facet normal 0 1 0
    outer loop
      vertex 19 10.75 6
      vertex 21 10.75 1.5
      vertex 19 10.75 1.5
    endloop
  endfacet
  facet normal 0 -1 0
    outer loop
      vertex 19 5.75 1.5
      vertex 21 5.75 6
      vertex 19 5.75 6
    endloop
  endfacet
  facet normal 0 -1 -0
    outer loop
      vertex 21 5.75 6
      vertex 19 5.75 1.5
      vertex 21 5.75 1.5
    endloop
  endfacet
endsolid OpenSCAD_Model
